<?xml version="1.0" encoding="UTF-8" standalone="no"?>
<svg version="1.0" xmlns="http://www.w3.org/2000/svg"
 width="1217.000000pt" height="1300.000000pt" viewBox="0 0 1217.000000 1300.000000"
 preserveAspectRatio="xMidYMid meet">
<g transform="translate(0.000000,1300.000000) scale(0.100000,-0.100000)"
fill="#000000" stroke="none">
<path d="M5672 12520 c-1339 -89 -2564 -602 -3557 -1491 -1058 -948 -1744 -2271 -1904 -3674 -41 -352 -42 -473 -39 -2800 4 -2071 5 -2249 21 -2355 120 -787 406 -1132 1077 -1300 112 -28 218 -47 390 -72 118 -16 4396 -24 4683 -8 1765 97 3351 953 4409 2380 1072 1444 1412 3352 908 5096 -549 1904 -2039 3413 -3934 3984 -381 114 -744 185 -1156 225 -194 19 -707 27 -898 15z m861 -975 c1524 -161 2867 -1004 3671 -2305 80 -129 275 -499 318 -605 9 -22 27 -62 38 -90 45 -104 114 -302 175 -500 48 -157 115 -471 145 -680 6 -44 13 -91 15 -105 34 -226 40 -793 12 -1066 -99 -959 -457 -1834 -1052 -2578 -754 -943 -1824 -1570 -3020 -1770 -376 -63 -290 -61 -2430 -61 -1821 0 -1958 1 -2075 18 -367 53 -635 154 -805 306 -185 164 -305 433 -362 811 -17 107 -18 259 -18 2085 0 2134 -2 2064 56 2429 39 245 48 288 124 568 82 302 184 564 342 878 641 1277 1819 2213 3211 2551 266 65 570 111 882 133 121 8 632 -4 773 -19z"/>
<path d="M5735 10010 c-1154 -103 -2161 -796 -2684 -1847 -174 -349 -277 -689 -337 -1118 -16 -107 -18 -266 -21 -1485 -5 -1471 -4 -1506 47 -1705 33 -131 73 -224 136 -311 104 -147 289 -241 574 -292 87 -15 215 -17 1460 -17 1496 0 1416 -3 1741 60 341 67 707 209 1027 399 831 495 1430 1376 1591 2341 38 229 46 328 46 590 0 262 -8 361 -46 590 -133 796 -565 1543 -1190 2057 -482 396 -1038 637 -1669 723 -137 19 -534 27 -675 15z m592 -1058 c542 -77 983 -255 1361 -549 401 -313 685 -816 781 -1385 56 -332 53 -768 -10 -1103 -93 -503 -342 -950 -704 -1262 -359 -310 -796 -495 -1365 -577 -211 -31 -427 -37 -1150 -34 l-715 3 -60 30 c-47 24 -65 40 -85 75 l-25 45 -3 2150 c-1 1182 2 2220 6 2307 8 144 11 161 38 215 32 63 64 88 136 103 23 4 403 7 843 6 757 -3 808 -4 952 -24z"/>
<path d="M5052 6513 l3 -2178 545 0 c564 1 628 4 835 46 214 43 439 139 608 259 110 79 275 249 348 360 231 349 342 795 341 1380 0 494 -75 856 -251 1225 -298 623 -833 997 -1536 1075 -49 5 -271 10 -493 10 l-402 0 2 -2177z"/>
<path d="M1284 7455 c-8 -20 4 -35 26 -35 50 0 63 -31 195 -460 70 -228 130 -423 133 -433 4 -15 13 -17 50 -15 l45 3 24 70 c13 39 62 191 107 338 46 148 87 271 91 275 15 15 36 -40 136 -358 l104 -330 42 0 42 0 27 88 c104 345 248 790 261 804 8 9 28 20 44 23 20 5 29 13 29 26 0 18 -9 19 -135 19 -127 0 -135 -1 -135 -19 0 -15 12 -22 55 -32 30 -7 55 -15 55 -18 0 -3 -48 -160 -107 -348 -94 -301 -123 -378 -123 -330 0 6 -51 174 -113 372 l-114 360 -29 3 c-28 3 -30 -1 -66 -90 -20 -51 -76 -220 -124 -375 -48 -156 -91 -280 -94 -275 -7 8 -210 666 -210 681 0 5 17 12 38 15 62 11 72 17 72 37 0 18 -9 19 -160 19 -131 0 -162 -3 -166 -15z"/>
<path d="M1847 6010 c-202 -51 -328 -252 -314 -500 11 -191 84 -315 225 -382 135 -64 302 -44 449 55 70 46 73 50 73 88 0 21 -3 39 -6 39 -3 0 -20 -11 -38 -25 -17 -13 -59 -37 -91 -52 -53 -25 -72 -28 -156 -28 -89 0 -99 2 -145 30 -86 54 -135 150 -150 295 l-7 70 294 2 294 3 -1 81 c-2 135 -59 232 -174 293 -51 27 -75 34 -138 37 -42 2 -94 -1 -115 -6z m169 -79 c53 -32 83 -96 99 -213 l6 -48 -210 0 c-242 0 -225 -9 -191 102 22 71 71 136 122 161 46 23 135 22 174 -2z"/>
<path d="M1725 4819 c-49 -10 -114 -24 -143 -30 -69 -14 -66 -33 12 -64 33 -13 63 -30 67 -37 5 -7 9 -266 9 -576 l0 -563 54 -25 c85 -39 186 -56 306 -52 96 3 112 6 173 36 161 79 246 238 247 457 0 156 -43 270 -132 350 -59 53 -121 75 -209 75 -93 0 -168 -29 -230 -89 l-49 -47 0 293 c0 161 -3 293 -7 292 -5 -1 -48 -10 -98 -20z m411 -557 c62 -32 98 -80 130 -172 28 -83 27 -284 -3 -362 -41 -109 -104 -169 -199 -188 -63 -13 -136 3 -195 43 l-34 23 -3 296 -2 296 41 35 c22 20 57 40 77 46 53 15 142 7 188 -17z"/>
</g>
</svg>