<svg xmlns="http://www.w3.org/2000/svg" viewBox="0 0 16.5 16.8"><path class="st0" d="M10.032 8.476a.956.956 0 0 0 .138 1.084c.11.118.248.206.4.255a.61.61 0 0 1 .391.391.927.927 0 0 0 .891.647.967.967 0 0 0 .684-.282l2.668-2.673a.962.962 0 0 0 .036-1.322.944.944 0 0 0-.4-.255.609.609 0 0 1-.391-.392.944.944 0 0 0-.255-.4.953.953 0 0 0-1.083-.139l-2.918-2.923a.956.956 0 0 0-.138-1.084.938.938 0 0 0-.4-.255.61.61 0 0 1-.391-.391.938.938 0 0 0-.255-.4.955.955 0 0 0-1.319.035L5.023 3.045a.96.96 0 0 0-.036 1.322c.11.118.248.206.4.255a.61.61 0 0 1 .391.391.926.926 0 0 0 .891.647.972.972 0 0 0 .446-.108l.821.822-7.615 7.63a1.009 1.009 0 0 0 0 1.422 1.001 1.001 0 0 0 1.42 0l7.615-7.63.676.68zm4.415-1.819c.076.048.158.087.245.116a.46.46 0 0 1 .198.127.482.482 0 0 1-.024.662l-2.668 2.673a.48.48 0 0 1-.661.024.466.466 0 0 1-.127-.199 1.045 1.045 0 0 0-.116-.246l3.153-3.157zM13.208 5.9a.493.493 0 0 1 .348-.145.456.456 0 0 1 .44.32c.028.087.067.17.116.246L10.96 9.478a1.08 1.08 0 0 0-.245-.116.46.46 0 0 1-.198-.127.482.482 0 0 1 .024-.662l1.334-1.337L13.208 5.9zm-7.43-1.614a1.067 1.067 0 0 0-.246-.116.466.466 0 0 1-.198-.127.482.482 0 0 1 .024-.662L8.026.708a.493.493 0 0 1 .348-.145.456.456 0 0 1 .439.32c.028.087.067.17.116.245L5.778 4.286zm1.238.756a.48.48 0 0 1-.661.024.458.458 0 0 1-.126-.198 1.067 1.067 0 0 0-.116-.246l3.151-3.157c.076.048.159.087.246.115a.46.46 0 0 1 .198.127.482.482 0 0 1-.024.662L7.016 5.042zm.466.206L9.89 2.836l2.853 2.859-1.204 1.206-1.204 1.206-2.853-2.859zM1.403 15.09a.528.528 0 0 1-.748 0 .532.532 0 0 1 0-.75L8.27 6.71l.748.75-7.615 7.63zm15.077.427a.243.243 0 0 0-.048-.145l-.965-1.264v-.578a.238.238 0 0 0-.237-.238H8.586a.238.238 0 0 0-.237.238v.578l-.965 1.264a.238.238 0 0 0-.048.145v1.013c0 .131.106.238.237.238h8.671a.237.237 0 0 0 .237-.238l-.001-1.013zm-7.657-1.748h6.168v.183H8.823v-.183zm-.12.659h6.408l.651.852h-7.71l.651-.852zm7.303 1.864H7.809v-.537h8.197v.537zM11.887 5.886a.237.237 0 0 0 .168-.406l-1.952-1.955a.237.237 0 1 0-.335.336l1.952 1.955a.23.23 0 0 0 .167.07z"/></svg>