<svg xmlns="http://www.w3.org/2000/svg" viewBox="0 0 19.8 17.1"><path class="st0" d="M18.253 4.146V.916A.923.923 0 0 0 17.326 0h-.627l-.022.001-.012.002-.018.003-.013.003-.016.004-.014.005-.015.005-.014.006-.013.006-.015.009-.011.007a.192.192 0 0 0-.017.013l-.007.005c-1.837 1.476-4.279 2.984-8.467 2.984H2.166C.972 3.053 0 4.01 0 5.189v2.443C0 8.81.972 9.768 2.166 9.768h1.272l.797 6.556c.038.312.195.583.421.776h2.805c.049-.04.11-.063.153-.111a1.21 1.21 0 0 0 .303-.956l-.762-6.265h.889c4.188 0 6.63 1.508 8.467 2.984l.022.016a.008.008 0 0 0 .004.002l.021.012.008.004a.245.245 0 0 0 .017.008l.01.004.017.006.011.003a.105.105 0 0 0 .017.004.036.036 0 0 0 .011.002l.019.003.009.001.029.002h.619a.923.923 0 0 0 .928-.916V8.674A2.46 2.46 0 0 0 19.8 6.41a2.46 2.46 0 0 0-1.547-2.264zM7.302 16.106a.612.612 0 0 1-.614.684H5.464a.616.616 0 0 1-.614-.538l-.009-.073h1.347a.307.307 0 0 0 .309-.305.307.307 0 0 0-.309-.305H4.767l-.705-5.8h2.471l.769 6.337zM17.634 4.357v7.547a.307.307 0 0 1-.309.305h-.309V6.105a.307.307 0 0 0-.309-.305.307.307 0 0 0-.309.305v5.78c-1.664-1.256-3.82-2.443-7.116-2.683V5.189a.306.306 0 0 0-.309-.305.307.307 0 0 0-.309.305v3.979c-.204-.007-.41-.01-.62-.01H2.166A1.539 1.539 0 0 1 .619 7.632V5.189c0-.842.694-1.526 1.547-1.526h5.878c.21 0 .417-.004.619-.011v.316c0 .168.139.305.309.305a.307.307 0 0 0 .309-.305v-.35c3.296-.24 5.451-1.427 7.116-2.683v2.117c0 .168.139.305.309.305a.307.307 0 0 0 .309-.305V.61h.309c.171 0 .309.137.309.305v3.442zm.619 3.639V4.825c.562.323.928.926.928 1.586a1.84 1.84 0 0 1-.928 1.585zm-1.547-4.028a.307.307 0 0 0-.309.305v.611c0 .168.139.305.309.305a.307.307 0 0 0 .309-.305v-.611a.306.306 0 0 0-.309-.305z"/></svg>