<svg xmlns="http://www.w3.org/2000/svg" viewBox="0 0 21.9 21"><g class="st0"><path class="st1" d="M16.767 7a1.04 1.04 0 0 0-1.027 1.05c0 .579.461 1.05 1.027 1.05a1.04 1.04 0 0 0 1.027-1.05A1.04 1.04 0 0 0 16.767 7zm0 1.4a.346.346 0 0 1-.342-.35c0-.193.154-.35.342-.35.189 0 .342.157.342.35 0 .193-.153.35-.342.35zm3.764-.35h-.546c-.615-1.524-1.73-2.869-3.218-3.868V.35a.346.346 0 0 0-.342-.35c-1.558 0-2.85 1.19-3.052 2.728-.8-.185-1.613-.278-2.423-.278-2.549 0-4.948.867-6.755 2.441A8.396 8.396 0 0 0 2.062 7.7h-.009C1.298 7.7.684 7.072.684 6.3c0-.306.095-.596.274-.84a.356.356 0 0 0-.068-.49.337.337 0 0 0-.479.069A2.114 2.114 0 0 0 0 6.3c0 1.066.78 1.948 1.786 2.082a7.476 7.476 0 0 0-.417 2.468c0 2.758 1.531 5.321 4.106 6.895V19.6c0 .772.614 1.4 1.369 1.4h.684c.755 0 1.369-.628 1.369-1.4v-.545c1.351.259 2.766.258 4.106.001v.544c0 .772.614 1.4 1.369 1.4h.684c.755 0 1.369-.628 1.369-1.4v-1.859c1.424-.87 2.534-2.039 3.24-3.391h.866c.755 0 1.369-.628 1.369-1.4v-3.5c0-.772-.614-1.4-1.369-1.4zm.685 4.9c0 .386-.307.7-.684.7h-.544c.126-.313.231-.634.314-.962a.35.35 0 0 0-.245-.427.341.341 0 0 0-.417.251 6.965 6.965 0 0 1-.502 1.357c-.669 1.36-1.783 2.53-3.237 3.375a.352.352 0 0 0-.159.402V19.6c0 .386-.307.7-.684.7h-.684a.693.693 0 0 1-.684-.7v-.973a.352.352 0 0 0-.129-.274.34.34 0 0 0-.289-.068 10.247 10.247 0 0 1-4.638-.001.332.332 0 0 0-.289.068.354.354 0 0 0-.129.274v.974c0 .386-.307.7-.684.7h-.688a.693.693 0 0 1-.684-.7v-2.056a.35.35 0 0 0-.173-.304c-2.463-1.437-3.934-3.825-3.934-6.389 0-4.246 3.991-7.7 8.897-7.7.8 0 1.605.098 2.395.29v.41c0 .193.153.35.342.35s.342-.157.342-.35V3.26a.354.354 0 0 0 .001-.18c.033-1.201.915-2.188 2.052-2.355v3.482a.354.354 0 0 0 .13.443c1.524.971 2.643 2.32 3.211 3.85a6.668 6.668 0 0 1 .215.687.342.342 0 0 0 .417.251.35.35 0 0 0 .245-.427c-.022-.087-.047-.174-.072-.261h.302c.377 0 .684.314.684.7v3.5zM10.95 8.4c.622 0 1.197.303 1.339.706.02.055.03.112.03.169 0 .579.461 1.05 1.027 1.05a1.04 1.04 0 0 0 1.027-1.05c0-.3-.051-.596-.151-.881-.337-.956-1.174-1.674-2.266-1.958A1.036 1.036 0 0 0 10.95 5.6c-.493 0-.906.358-1.005.833-.636.17-1.21.503-1.636.952-.504.53-.781 1.202-.781 1.89 0 1.641 1.535 2.975 3.422 2.975.646 0 1.369.374 1.369.875S11.596 14 10.95 14s-1.369-.374-1.369-.875a1.04 1.04 0 0 0-1.027-1.05 1.04 1.04 0 0 0-1.027 1.05c0 .689.277 1.36.781 1.891.427.449 1 .781 1.636.952.098.475.511.833 1.005.833.493 0 .906-.358 1.004-.833a3.508 3.508 0 0 0 1.636-.952c.504-.53.781-1.202.781-1.891 0-1.64-1.535-2.975-3.422-2.975-.646 0-1.369-.374-1.369-.875.002-.501.725-.875 1.371-.875zm0 2.45c1.509 0 2.737 1.021 2.737 2.275 0 1.044-.89 1.975-2.117 2.214a.349.349 0 0 0-.278.344v.067c0 .193-.154.35-.342.35a.346.346 0 0 1-.342-.35v-.068a.349.349 0 0 0-.278-.344c-1.227-.238-2.117-1.169-2.117-2.214 0-.193.154-.35.342-.35.189 0 .342.157.342.35 0 .869.921 1.575 2.053 1.575s2.053-.706 2.053-1.575c0-.868-.921-1.575-2.053-1.575-1.51 0-2.738-1.021-2.738-2.275 0-1.044.89-1.975 2.117-2.213a.349.349 0 0 0 .278-.344V6.65c0-.193.154-.35.342-.35.189 0 .342.157.342.35v.072c0 .168.117.313.279.344.961.183 1.73.783 2.005 1.565.074.209.111.426.111.644 0 .193-.154.35-.342.35s-.342-.157-.342-.35c0-.138-.024-.275-.07-.407C12.691 8.18 11.875 7.7 10.95 7.7c-1.132 0-2.053.706-2.053 1.575 0 .868.921 1.575 2.053 1.575zM7.045 4.692C5.957 5.194 5 5.913 4.277 6.771a.357.357 0 0 0 .036.494.335.335 0 0 0 .482-.037c.659-.781 1.534-1.437 2.532-1.898a.353.353 0 0 0 .171-.463.34.34 0 0 0-.453-.175zm1.383.208a.32.32 0 0 0 .092-.013c.255-.073.517-.135.78-.184a.35.35 0 0 0 .276-.408.343.343 0 0 0-.398-.281c-.283.053-.566.12-.841.199a.35.35 0 0 0-.238.431c.042.155.18.256.329.256z"/></g></svg>