<svg xmlns="http://www.w3.org/2000/svg" viewBox="0 0 14.4 23.7"><path class="st0" d="M14.249 8.961a.725.725 0 0 0 .072-.776.754.754 0 0 0-.677-.409H1.524v-.127c0-.297.118-.576.333-.786l.221-.216a1.125 1.125 0 0 0 1.339-1.093c0-.613-.51-1.111-1.136-1.111-.627 0-1.136.498-1.136 1.111 0 .267.097.513.259.705l-.083.081c-.358.35-.555.815-.555 1.309v.127a.755.755 0 0 0-.677.409.723.723 0 0 0 .072.776l2.878 3.752v8.764h-.757a.75.75 0 0 0-.757.741v1.111c0 .204.17.37.379.37h10.604a.375.375 0 0 0 .379-.37v-1.111a.75.75 0 0 0-.757-.741h-.76v-8.764l2.879-3.752zM2.281 5.184c.209 0 .379.166.379.37s-.17.37-.379.37a.375.375 0 0 1-.379-.37c0-.204.17-.37.379-.37zm7.953 5.555h.379v10.739h-.379a.375.375 0 0 0-.379.37c0 .205.17.37.379.37h1.894v.741H2.282v-.741H8.72a.375.375 0 0 0 .379-.37c0-.204-.17-.37-.379-.37H3.797V10.739H8.72a.375.375 0 0 0 .379-.37c0-.205-.17-.37-.379-.37H3.418a.375.375 0 0 0-.379.37v1.111L.767 8.517h12.876l-2.272 2.963v-1.111c0-.205-.17-.37-.379-.37h-.758a.375.375 0 0 0-.379.37c0 .204.17.37.379.37zM4.181 7.455a.375.375 0 0 0 .379-.37v-.802c0-.25.294-.729.754-.729h.602l.912.894v.576c0 .205.17.37.379.37a.375.375 0 0 0 .379-.37v-.575l.457-.445.391-.382.068-.067h.599c.46 0 .754.478.754.729v.803c0 .205.17.37.379.37a.375.375 0 0 0 .379-.37v-.804c0-.322-.154-.683-.411-.965a1.486 1.486 0 0 0-1.101-.504h-.757a.38.38 0 0 0-.283.124l-.852.833-.299-.293-.391-.382c-.249-.244-.264-.258-.387-.277a.405.405 0 0 0-.06-.005h-.758c-.413 0-.804.179-1.101.504-.257.282-.41.643-.41.965v.802c0 .205.169.37.378.37zm3.027-2.641c1.253 0 2.272-.997 2.272-2.222V.37c0-.204-.17-.37-.379-.37h-3.03c-.626 0-1.136.498-1.136 1.111v1.481c0 1.225 1.02 2.222 2.273 2.222zM5.693 1.111c0-.204.17-.37.379-.37h2.651v1.067l-2.988-.325a.59.59 0 0 0-.042-.002v-.37zm0 1.113l3.03.329v.039c0 .817-.68 1.481-1.515 1.481-.835 0-1.515-.664-1.515-1.481v-.368z"/></svg>