<svg xmlns="http://www.w3.org/2000/svg" viewBox="0 0 18.6 21"><path class="st0" d="M13.347 7.117a.33.33 0 0 0 .466.04.327.327 0 0 0 .04-.463 5.856 5.856 0 0 0-.716-.71c-.14-.117-.348-.099-.466.039s-.1.346.04.462c.228.192.443.404.636.632zm1.208.603a.335.335 0 0 0-.062-.081.332.332 0 0 0-.488-.212l-1.196.685a.999.999 0 0 0-1.14-.105l-1.055.603a2.277 2.277 0 0 0-.322-.185V7.218a.987.987 0 0 0-.662-.928V5.26a5.321 5.321 0 0 1 2.161.607.333.333 0 0 0 .448-.135.327.327 0 0 0-.136-.444A6.006 6.006 0 0 0 9.3 4.593a5.968 5.968 0 0 0-5.156 2.954c-.005.007-.008.014-.012.022a5.834 5.834 0 0 0-.786 2.931c0 1.259.394 2.46 1.139 3.474a.332.332 0 0 0 .463.072.326.326 0 0 0 .073-.458 7.611 7.611 0 0 1-.129-.184l.901-.516a.999.999 0 0 0 1.14.105l1.054-.604c.102.07.209.132.322.185v1.207c0 .428.277.792.662.928v1.031a5.326 5.326 0 0 1-3.08-1.225.332.332 0 0 0-.466.039.326.326 0 0 0 .039.462 5.99 5.99 0 0 0 3.837 1.39 5.966 5.966 0 0 0 5.156-2.953l.012-.022c.5-.864.786-1.865.786-2.931a5.899 5.899 0 0 0-.7-2.78zm-2.556.855a.33.33 0 0 1 .452.12.327.327 0 0 1-.121.448l-.88.504a2.274 2.274 0 0 0-.332-.568l.881-.504zm-.55 2.777l.88.504a.327.327 0 0 1-.08.601.33.33 0 0 1-.251-.033l-.881-.505c.137-.171.249-.362.332-.567zM9.3 6.89a.33.33 0 0 1 .331.328v1.008a2.41 2.41 0 0 0-.662.001V7.218A.33.33 0 0 1 9.3 6.89zm-.331-1.63v1.03a.986.986 0 0 0-.662.928v1.206c-.112.054-.22.116-.322.186l-1.054-.603a.99.99 0 0 0-1.14.104l-.899-.514A5.302 5.302 0 0 1 8.969 5.26zm-3.492 6.626a.97.97 0 0 0-.017.435l-.9.516a5.188 5.188 0 0 1-.552-2.336c0-.839.199-1.632.553-2.335l.898.514a.986.986 0 0 0 .48 1.032l1.054.603a2.27 2.27 0 0 0 0 .37l-1.054.603a.977.977 0 0 0-.462.598zm1.124.538a.333.333 0 0 1-.452-.12.327.327 0 0 1 .121-.448l.88-.504c.083.206.195.396.332.568l-.881.504zm.549-2.776l-.88-.505a.327.327 0 0 1-.121-.448.332.332 0 0 1 .452-.12l.881.505a2.318 2.318 0 0 0-.332.568zm.496.852c0-.905.742-1.641 1.654-1.641s1.654.736 1.654 1.641-.742 1.64-1.654 1.64-1.654-.736-1.654-1.64zM9.3 14.109a.33.33 0 0 1-.331-.328v-1.008a2.252 2.252 0 0 0 .662 0v1.008a.33.33 0 0 1-.331.328zm.331 1.63v-1.03a.985.985 0 0 0 .661-.928v-1.207c.113-.053.22-.115.322-.185l1.054.604a1 1 0 0 0 1.14-.105l.898.515a5.298 5.298 0 0 1-4.075 2.336zm4.408-2.904l-.899-.515a.984.984 0 0 0-.479-1.032l-1.053-.604a2.25 2.25 0 0 0 0-.37l1.053-.603a.982.982 0 0 0 .479-1.032l.901-.516c.361.721.552 1.525.552 2.336a5.198 5.198 0 0 1-.554 2.336zm4.065 1.57l-1.719-.984a1 1 0 0 0-.376-.125c.366-.86.568-1.805.568-2.796 0-.991-.202-1.936-.568-2.796a.99.99 0 0 0 .376-.125l1.719-.984a.977.977 0 0 0 .462-.598.972.972 0 0 0-.099-.747.998.998 0 0 0-1.356-.36l-1.719.984a1 1 0 0 0-.299.263 7.294 7.294 0 0 0-4.88-2.8.967.967 0 0 0 .079-.385V.984C10.292.441 9.847 0 9.3 0s-.992.441-.992.984v1.969c0 .136.028.266.079.385a7.289 7.289 0 0 0-4.881 2.799.984.984 0 0 0-.299-.263l-1.718-.985a.995.995 0 0 0-1.356.361.98.98 0 0 0 .363 1.344l1.719.985a.987.987 0 0 0 .376.124 7.132 7.132 0 0 0-.568 2.797c0 .991.202 1.936.568 2.796a.972.972 0 0 0-.376.125l-1.719.984a.982.982 0 0 0 .24 1.804.994.994 0 0 0 .753-.098l1.719-.984a.997.997 0 0 0 .299-.263 7.289 7.289 0 0 0 4.88 2.799.967.967 0 0 0-.079.385v1.969c0 .541.445.983.992.983s.992-.442.992-.984v-1.969a.97.97 0 0 0-.079-.385 7.292 7.292 0 0 0 4.881-2.8.964.964 0 0 0 .299.263l1.719.985a.996.996 0 0 0 1.356-.36c.133-.228.168-.493.099-.747s-.234-.466-.463-.598zm-2.381-7.963l1.719-.984a.334.334 0 0 1 .452.12.328.328 0 0 1-.121.448l-1.719.985a.333.333 0 0 1-.452-.12.328.328 0 0 1 .121-.449zM8.969.984c0-.181.148-.328.331-.328s.331.147.331.328v1.969c0 .181-.148.328-.331.328s-.331-.147-.331-.328V.984zM2.546 7.011L.827 6.026a.327.327 0 0 1 .166-.612c.057 0 .114.015.165.044l1.719.984a.324.324 0 0 1 .121.448.332.332 0 0 1-.452.121zm.331 7.546l-1.719.984a.334.334 0 0 1-.452-.12.327.327 0 0 1 .121-.448l1.719-.984a.334.334 0 0 1 .452.12.325.325 0 0 1-.121.448zm6.754 5.458c0 .181-.148.328-.331.328s-.331-.147-.331-.328v-1.969c0-.181.148-.328.331-.328s.331.147.331.328v1.969zM9.3 17.062c-3.648 0-6.616-2.944-6.616-6.562S5.652 3.937 9.3 3.937s6.616 2.944 6.616 6.563-2.968 6.562-6.616 6.562zm8.594-1.64a.33.33 0 0 1-.452.12l-1.719-.984a.327.327 0 0 1 .166-.612c.057 0 .114.015.165.044l1.719.984a.327.327 0 0 1 .121.448z"/></svg>