<svg xmlns="http://www.w3.org/2000/svg" viewBox="0 0 14.4 14.7"><path class="st0" d="M14.188.41c0-.095-.073-.191-.194-.215a.244.244 0 0 0-.266.119c0 .024-1.307 2.169-2.929 2.598-.073.024-.145.071-.169.143 0 0-.847 2.145-3.22 4.481l-.23.227-.278-.274C4.578 5.201 3.707 3.056 3.707 3.032c-.025-.072-.097-.119-.17-.143C1.915 2.484.608.339.608.315A.245.245 0 0 0 .342.196C.221.22.148.315.148.41s-.121 2.264.75 4.171c.097.238.46.357 1.089.381-.217.715-.169.787-.096.858.121.167 2.445 2.598 3.752 3.289l.111.057-.937.922a1.339 1.339 0 0 1-.07-.264.72.72 0 0 0-.702-.572.777.777 0 0 0-.581.262c-.145.167-.218.357-.169.572.075.384.215.741.42 1.064l-1.439 1.417a.98.98 0 0 0-.627.284.94.94 0 0 0 0 1.358.977.977 0 0 0 1.38 0 .953.953 0 0 0 .29-.667l1.423-1.401c.319.189.674.326 1.047.399.048.024.097.024.145.024a.578.578 0 0 0 .46-.191.828.828 0 0 0 .242-.572.671.671 0 0 0-.581-.667 1.65 1.65 0 0 1-.14-.028c.449-.395.888-.734 1.273-1.016.445.336.875.673 1.269 1.021-.065.02-.131.036-.199.047a.693.693 0 0 0-.581.667.663.663 0 0 0 .242.572.913.913 0 0 0 .484.167h.145a3.184 3.184 0 0 0 1.028-.394l1.47 1.447c.02.214.116.424.286.592.194.191.436.286.678.286s.484-.095.702-.286a.94.94 0 0 0 0-1.358.98.98 0 0 0-.702-.286l-1.413-1.391a3.07 3.07 0 0 0 .42-1.064.734.734 0 0 0-.169-.572.777.777 0 0 0-.581-.262c-.339 0-.654.238-.702.572a1.433 1.433 0 0 1-.06.251l-.919-.905.107-.061C10 8.418 12.3 6.011 12.445 5.844c.073-.095.145-.167-.097-.882.629-.024.992-.167 1.089-.381.872-1.931.751-4.075.751-4.171zM2.327 5.582c.024-.143.121-.501.218-.786a.229.229 0 0 0-.025-.215c-.048-.048-.121-.095-.193-.095-.436 0-.896-.048-1.017-.119-.484-1.12-.629-2.36-.678-3.146.533.691 1.501 1.764 2.663 2.121.218.5 1.138 2.431 3.268 4.528l.254.25-.708.698a.787.787 0 0 1-.224-.114c-1.113-.62-3.195-2.717-3.558-3.122zm.339 8.294a.473.473 0 0 1-.678 0 .455.455 0 0 1 0-.667.496.496 0 0 1 .393-.141c.078.01.2.057.285.141a.457.457 0 0 1 0 .667zm.521-.823a1.004 1.004 0 0 0-.333-.34l1.167-1.149.145.143.024.024.169.167-1.172 1.155zm2.771-1.417c.121 0 .194.095.194.214.024.095-.048.167-.073.191-.073.048-.145.071-.218.048a2.56 2.56 0 0 1-1.331-.691c-.387-.381-.629-.882-.75-1.358a.201.201 0 0 1 .048-.192.222.222 0 0 1 .194-.095c.097 0 .194.095.218.191.073.405.29.81.605 1.12.314.309.701.5 1.113.572zm5.713 1.572a.505.505 0 0 1 .11-.083.42.42 0 0 1 .18-.037.288.288 0 0 0 .105-.02.487.487 0 0 1 .283.139.455.455 0 0 1 0 .667c-.169.191-.484.191-.678 0a.454.454 0 0 1 0-.666zm-.179-.486a.963.963 0 0 0-.16.129l-.013.013a.71.71 0 0 0-.083.096l-.034.048-.039.057-1.186-1.168.169-.167.169-.167 1.177 1.159zm-1.443-2.778c.024-.119.121-.191.242-.191.073 0 .145.024.169.095.024.048.073.095.048.191a2.67 2.67 0 0 1-.726 1.358l.012.012-.01.01-.026-.022a2.553 2.553 0 0 1-1.331.691.234.234 0 0 1-.218-.048.286.286 0 0 1-.073-.191c0-.095.097-.191.194-.214a2.134 2.134 0 0 0 1.719-1.691zm-.799.571a1.376 1.376 0 0 1-.145.191c-.048.071-.121.119-.194.167a15.393 15.393 0 0 0-1.308-1.079l.267-.184c.09-.064.184-.123.28-.178l1.1 1.083zm3.752-6.148c-.097.071-.581.119-.993.119a.223.223 0 0 0-.218.309c.121.286.218.643.242.787-.363.405-2.445 2.526-3.559 3.122l-.296.16a.273.273 0 0 0-.138.031c-.17.095-.315.19-.46.286a6.856 6.856 0 0 1-.557.405.34.34 0 0 0-.055.068c-.459.335-.992.749-1.536 1.237a1.596 1.596 0 0 1-.224-.184l-.001-.001a2.016 2.016 0 0 1-.141-.17L7.749 7.87c2.155-2.121 3.05-4.052 3.268-4.528 1.162-.358 2.13-1.406 2.663-2.121-.024.762-.169 2.025-.678 3.146z"/></svg>