<svg id="Layer_1" xmlns="http://www.w3.org/2000/svg" viewBox="-301 392.12 8.88 8.88"><style>.st0{enable-background:new}.st1{fill:#ff8400}</style><g id="Forma_1_1_" class="st0"><path class="st1" d="M-295.666 400.234a3.374 3.374 0 0 1-.222.048.36.36 0 0 0 .13.708c.088-.017.177-.036.265-.058a.36.36 0 0 0-.173-.698zm2.642-4.82a.353.353 0 0 0 .451.229.36.36 0 0 0 .227-.455 4.595 4.595 0 0 0-.093-.256.356.356 0 0 0-.464-.2.36.36 0 0 0-.199.467c.028.071.054.143.078.215zm-1.481 4.307a3.484 3.484 0 0 1-.194.12.361.361 0 0 0-.028.605c.11.078.26.09.384.017a4.91 4.91 0 0 0 .23-.143.36.36 0 0 0 .101-.498.353.353 0 0 0-.493-.101zm2.381-3.302a.357.357 0 1 0-.714.028c.003.076.004.153.002.228a.363.363 0 0 0 .152.303.358.358 0 0 0 .563-.287c.002-.09.001-.182-.003-.272zm-1.459 2.428a3.075 3.075 0 0 1-.142.178.361.361 0 0 0 .04.507l.027.021a.356.356 0 0 0 .477-.061c.058-.069.115-.141.169-.213a.362.362 0 0 0-.071-.503.355.355 0 0 0-.5.071zm1.026-1.372a.357.357 0 0 0-.448.235 4.279 4.279 0 0 1-.075.217.363.363 0 0 0 .207.464.356.356 0 0 0 .461-.208c.032-.085.062-.171.089-.257a.36.36 0 0 0-.234-.451zm-4.667 2.811a3.69 3.69 0 0 1-1.13-.402h-.001a3.773 3.773 0 0 1-1.256-5.452c.257-.368.569-.674.916-.918l.013-.009a3.714 3.714 0 0 1 4.185-.034l-.279.406c-.078.113-.03.195.106.183l1.212-.109a.202.202 0 0 0 .181-.264l-.325-1.18c-.037-.133-.13-.148-.208-.036l-.28.408a4.387 4.387 0 0 0-3.571-.62l-.002.001-.013.003a4.4 4.4 0 0 0-2.458 1.667l-.06.084a4.274 4.274 0 0 0-.094.14l-.01.017a4.454 4.454 0 0 0-.704 2.615v.009c.004.09.011.182.021.272 0 .006.002.011.003.017a4.451 4.451 0 0 0 1.281 2.679l.005.005.002.001c.175.173.365.334.569.479.535.38 1.131.63 1.771.746a.358.358 0 0 0 .415-.29.36.36 0 0 0-.289-.418zm.441-6.599a.29.29 0 0 0-.289.291v2.898l2.634 1.37a.287.287 0 0 0 .389-.124.292.292 0 0 0-.124-.392l-2.321-1.208v-2.544a.29.29 0 0 0-.289-.291z" id="Forma_1"/></g></svg>