<svg id="Shape_1_1_" xmlns="http://www.w3.org/2000/svg" viewBox="0 0 51.6 71.1"><style>.st0{opacity:.3}.st1{fill:#75cf2d}</style><g id="Shape_1" class="st0"><path class="st1" d="M51.185.415A1.421 1.421 0 0 0 50.18 0H1.419C.635 0 0 .634 0 1.416v68.268c0 .782.635 1.416 1.419 1.416H50.06c.783 0 1.417-.633 1.419-1.414L51.6 1.418a1.42 1.42 0 0 0-.415-1.003zm-2.542 67.852H2.837V2.832h45.922l-.116 65.435zm-8.639-16.202c0-4.031-3.284-7.309-7.321-7.309s-7.321 3.279-7.321 7.309c0 .196.01.389.025.581l-6.55 6.555a1.416 1.416 0 0 0 .843 2.407l3.089.354.354 3.084a1.417 1.417 0 0 0 1.409 1.255 1.42 1.42 0 0 0 1.005-.416l6.533-6.539c.202.017.406.028.613.028.204 0 .406-.011.606-.027l6.488 6.535a1.42 1.42 0 0 0 2.417-.835l.355-3.083 3.089-.354a1.415 1.415 0 1 0 .846-2.404l-6.505-6.552c.015-.195.025-.391.025-.589zm-14.398 9.74l-.147-1.283a1.419 1.419 0 0 0-1.248-1.246l-1.294-.148 3.421-3.423a7.372 7.372 0 0 0 2.681 2.684l-3.413 3.416zm7.077-5.264a4.485 4.485 0 0 1-4.484-4.476 4.485 4.485 0 0 1 8.968 0 4.486 4.486 0 0 1-4.484 4.476zm9.728 2.586l-1.306.15a1.418 1.418 0 0 0-1.248 1.246l-.146 1.27-3.374-3.399a7.365 7.365 0 0 0 2.685-2.68l3.389 3.413zM8.492 51.696h10.924c.783 0 1.419-.634 1.419-1.416 0-.782-.635-1.416-1.419-1.416H8.492c-.783 0-1.419.634-1.419 1.416 0 .782.635 1.416 1.419 1.416zM20.054 11.33h11.491a1.417 1.417 0 0 0 0-2.833H20.054a1.418 1.418 0 0 0 0 2.833zM9.13 17.279h33.339c.783 0 1.419-.634 1.419-1.416 0-.782-.635-1.416-1.419-1.416H9.13c-.783 0-1.419.634-1.419 1.416 0 .782.636 1.416 1.419 1.416zm12.13 9.772h14.967c.783 0 1.419-.634 1.419-1.416 0-.782-.635-1.416-1.419-1.416H21.26c-.783 0-1.419.634-1.419 1.416 0 .782.635 1.416 1.419 1.416zm-5.108-2.832h-.78c-.783 0-1.419.634-1.419 1.416 0 .782.635 1.416 1.419 1.416h.78c.783 0 1.419-.634 1.419-1.416 0-.782-.635-1.416-1.419-1.416zm5.108 8.356h14.967c.783 0 1.419-.634 1.419-1.416 0-.782-.635-1.416-1.419-1.416H21.26c-.783 0-1.419.634-1.419 1.416 0 .782.635 1.416 1.419 1.416zm-5.108-2.832h-.78c-.783 0-1.419.634-1.419 1.416 0 .782.635 1.416 1.419 1.416h.78a1.417 1.417 0 0 0 0-2.832zm5.108 8.498h14.967c.783 0 1.419-.634 1.419-1.416 0-.782-.635-1.416-1.419-1.416H21.26c-.783 0-1.419.634-1.419 1.416 0 .782.635 1.416 1.419 1.416zm-5.108-2.833h-.78c-.783 0-1.419.634-1.419 1.416 0 .782.635 1.416 1.419 1.416h.78c.783 0 1.419-.634 1.419-1.416 0-.782-.635-1.416-1.419-1.416z"/></g></svg>