<svg id="Shape_1_1_" xmlns="http://www.w3.org/2000/svg" viewBox="0 0 70.5 54.9"><style>.st0{opacity:.3}.st1{fill:#75cf2d}</style><g id="Shape_1" class="st0"><path class="st1" d="M70.5 6.299c0-1.07-.415-2.075-1.169-2.831l-1.568-1.573A3.96 3.96 0 0 0 64.941.722a3.964 3.964 0 0 0-2.823 1.173L54.73 9.306V1.408c0-.778-.629-1.409-1.404-1.409H1.404C.629-.001 0 .631 0 1.408v52.083c0 .778.629 1.409 1.404 1.409h51.922c.775 0 1.404-.63 1.404-1.409V23.777L69.331 9.13A3.982 3.982 0 0 0 70.5 6.299zM51.922 52.082H2.809V2.817h49.113v9.306L26.21 37.915c-.154.155-.27.343-.339.55l-2.613 7.865a1.411 1.411 0 0 0 .339 1.441 1.402 1.402 0 0 0 1.437.341l7.84-2.622c.207-.069.395-.186.549-.341l18.499-18.556v25.489zm-20.251-9.159l-4.861 1.626 1.62-4.877L58.25 9.759l3.241 3.251-29.82 29.913zM67.345 7.138l-3.868 3.88-1.62-1.626-1.62-1.625 3.868-3.88c.223-.224.52-.348.836-.348.316 0 .613.123.836.347l1.568 1.573v.001c.223.224.346.522.346.838 0 .318-.123.616-.346.84zm-24.88 4.484h1.339c.776 0 1.404-.631 1.404-1.409s-.629-1.409-1.404-1.409h-1.339c-.776 0-1.404.631-1.404 1.409s.629 1.409 1.404 1.409zm-31.688 0h25.589c.775 0 1.404-.631 1.404-1.409s-.629-1.409-1.404-1.409H10.777c-.776 0-1.404.631-1.404 1.409s.628 1.409 1.404 1.409zm0 8.208h24.25c.776 0 1.404-.631 1.404-1.409s-.629-1.409-1.404-1.409h-24.25c-.776 0-1.404.631-1.404 1.409s.628 1.409 1.404 1.409zm0 8.208h15.472c.776 0 1.404-.631 1.404-1.409s-.629-1.409-1.405-1.409H10.777c-.776 0-1.404.631-1.404 1.409s.628 1.409 1.404 1.409zm8.778 5.241h-8.778c-.776 0-1.404.631-1.404 1.409s.629 1.409 1.404 1.409h8.778c.776 0 1.404-.631 1.404-1.409s-.629-1.409-1.404-1.409z"/></g></svg>