<svg id="Shape_1_1_" xmlns="http://www.w3.org/2000/svg" viewBox="0 0 51.9 71.7"><style>.st0{opacity:.3}.st1{fill:#75cf2d}</style><g id="Shape_1" class="st0"><path class="st1" d="M50.473 0H1.427C.639 0 0 .639 0 1.428v68.843C0 71.06.639 71.7 1.427 71.7h37.294c.378 0 .741-.151 1.009-.418l11.752-11.763c.268-.268.418-.631.418-1.01V1.428C51.9.639 51.261 0 50.473 0zM40.145 66.826l-.006-6.898 6.891.006-6.885 6.892zm8.901-9.747l-10.334-.009h-.001a1.431 1.431 0 0 0-1.427 1.429l.009 10.343H2.854V2.856h46.192v54.223zM10.082 19.247a1.428 1.428 0 0 0 2.018 0l5.208-5.213a1.43 1.43 0 0 0 0-2.02 1.426 1.426 0 0 0-2.018 0l-4.199 4.203-1.043-1.044a1.426 1.426 0 0 0-2.018 0 1.43 1.43 0 0 0 0 2.02l2.052 2.054zm32.278-1.529h.5a1.427 1.427 0 0 0 0-2.856h-.5a1.427 1.427 0 0 0 0 2.856zm-20.544 0h15.977a1.427 1.427 0 0 0 0-2.856H21.816a1.427 1.427 0 0 0 0 2.856zM10.082 33.074a1.428 1.428 0 0 0 2.018 0l5.208-5.213a1.43 1.43 0 0 0 0-2.02 1.426 1.426 0 0 0-2.018 0l-4.199 4.203L10.048 29a1.427 1.427 0 1 0-2.018 2.02l2.052 2.054zm11.734-1.53H42.86a1.428 1.428 0 0 0 0-2.856H21.816a1.427 1.427 0 0 0 0 2.856zM10.082 46.857a1.427 1.427 0 0 0 2.018 0l5.208-5.213a1.43 1.43 0 0 0 0-2.02 1.426 1.426 0 0 0-2.018 0l-4.199 4.203-1.043-1.044a1.426 1.426 0 0 0-2.018 0 1.43 1.43 0 0 0 0 2.02l2.052 2.054zm11.734-1.53H42.86a1.428 1.428 0 0 0 0-2.857H21.816a1.428 1.428 0 0 0 0 2.857z"/></g></svg>