<svg id="Forma_1_1_" xmlns="http://www.w3.org/2000/svg" viewBox="0 0 80.4 78.6"><style>.st0{opacity:.3}.st1{fill-rule:evenodd;clip-rule:evenodd;fill:#75cf2d}</style><g id="Forma_1" class="st0"><path class="st1" d="M47.346 14.153a1.048 1.048 0 0 0-1.25-.795 27.724 27.724 0 0 1-12.057 0 1.049 1.049 0 0 0-.456 2.047 29.643 29.643 0 0 0 12.969 0c.565-.126.921-.686.794-1.252zm-23.224 4.24a73.109 73.109 0 0 0 15.946 1.764c5.355 0 10.72-.593 15.926-1.759a1.05 1.05 0 0 0 .836-1.137C56.081 10.07 50.968 4.17 44.453 2.297V1.048c0-.579-.469-1.049-1.047-1.049s-1.047.47-1.047 1.049v.805a15.716 15.716 0 0 0-2.294-.186c-.775 0-1.535.076-2.288.186v-.805c0-.579-.469-1.049-1.047-1.049s-1.047.47-1.047 1.049v1.247c-6.512 1.872-11.628 7.773-12.376 14.964-.056.53.297 1.018.815 1.134zm11.56-13.899v3.248c0 .579.469 1.049 1.047 1.049s1.047-.47 1.047-1.049V3.968a13.741 13.741 0 0 1 2.294-.205c.776 0 1.539.078 2.288.203v3.776c0 .579.469 1.049 1.047 1.049s1.047-.47 1.047-1.049V4.493c5.16 1.72 9.222 6.356 10.167 12.055a71.103 71.103 0 0 1-29.106 0C26.46 10.85 30.52 6.216 35.682 4.494zm43.487 55.832c-.935-.941-2.4-1.399-4.476-1.399-2.077 0-3.542.458-4.476 1.399-1.251 1.26-1.241 3.028-1.233 4.587l.001 7.28c0 3.152 2.561 5.717 5.708 5.717 3.147 0 5.708-2.565 5.708-5.717l.001-7.28c.008-1.559.019-3.327-1.233-4.587zm-.861 4.576l-.001 7.292a3.62 3.62 0 0 1-3.613 3.619 3.616 3.616 0 0 1-3.295-2.148h2.133a1.048 1.048 0 0 0 0-2.098h-2.453v-1.771h2.453a1.048 1.048 0 0 0 0-2.098h-2.454v-1.91h2.454a1.048 1.048 0 0 0 0-2.098h-2.435c.043-.777.179-1.455.604-1.883.514-.518 1.521-.782 2.991-.782 1.47 0 2.477.262 2.991.782.638.64.631 1.832.625 3.095zM6.09 58.237c-2.224 0-3.787.487-4.782 1.488C-.02 61.062-.01 62.956-.001 64.626L0 72.501C0 75.864 2.732 78.6 6.089 78.6s6.089-2.736 6.089-6.099l.001-7.876c.009-1.67.02-3.563-1.309-4.9-.993-1.001-2.558-1.488-4.78-1.488zm3.995 9.487h-2.74a1.048 1.048 0 0 0 0 2.098h2.739v2.087H7.345a1.048 1.048 0 0 0 0 2.098h2.439a3.997 3.997 0 0 1-3.695 2.495 4.003 4.003 0 0 1-3.995-4.001l-.001-7.886c-.007-1.383-.015-2.692.699-3.41.573-.577 1.682-.871 3.297-.871 1.615 0 2.724.293 3.297.871.496.499.641 1.286.683 2.183H7.345a1.048 1.048 0 0 0 0 2.098h2.74v2.238zm31.583-44.793c-.306 0-.596.133-.795.366-.053.063-.077.141-.114.213h-1.384c-.037-.072-.061-.15-.114-.213a1.047 1.047 0 0 0-.795-.366h-8.255a1.049 1.049 0 0 0-1.048 1.066c.018.981.185 4.27 1.625 5.442.919.748 2.353 1.213 3.745 1.213 1.33 0 2.446-.422 3.143-1.188.755-.829 1.258-2.567 1.545-3.858h1.689c.287 1.292.79 3.03 1.545 3.858.699.766 1.815 1.188 3.144 1.188 1.391 0 2.826-.465 3.745-1.213 1.439-1.172 1.608-4.461 1.625-5.442a1.052 1.052 0 0 0-1.048-1.066h-8.253zm-5.537 5.12c-.292.321-.873.504-1.596.504-.904 0-1.878-.298-2.424-.743-.361-.294-.657-1.535-.786-2.784h5.878c-.271 1.231-.678 2.591-1.072 3.023zm11.894-.238c-.546.444-1.52.742-2.424.742-.723 0-1.305-.183-1.597-.504-.393-.432-.801-1.792-1.071-3.021h5.878c-.13 1.248-.425 2.488-.786 2.783zm25.49 28.773a1.049 1.049 0 0 0 2.093.099l.665-14.091a1.045 1.045 0 0 0-1.385-1.041 107.345 107.345 0 0 1-13.122 3.581c-1.997-1.968-4.802-3.656-8.014-4.824l.065-1.091a1.048 1.048 0 0 0-.983-1.109c-.579-.049-1.073.406-1.107.985l-.269 4.544-3.128-1.122a1.049 1.049 0 0 0-.707 1.975l4.445 1.596a1.046 1.046 0 0 0 1.398-.925l.158-2.667c2.129.833 4.027 1.909 5.554 3.135a107.243 107.243 0 0 1-18.377 1.727 1.048 1.048 0 0 0-1.04 1.049v2.734a107.092 107.092 0 0 1-21.86-2.304c1.914-2.742 4.805-4.823 8.75-6.332l.157 2.657a1.053 1.053 0 0 0 1.045.987c.118 0 .238-.021.353-.062l4.446-1.596a1.05 1.05 0 0 0-.707-1.975l-3.13 1.122-.269-4.544c-.034-.579-.535-1.035-1.107-.985a1.048 1.048 0 0 0-.983 1.109l.065 1.097c-4.935 1.779-8.554 4.475-10.781 8.026a107.335 107.335 0 0 1-10.489-2.989 1.045 1.045 0 0 0-1.383 1.068l.703 9.684c.041.552.5.972 1.044.972l.078-.002a1.048 1.048 0 0 0 .969-1.122l-.59-8.114a109.474 109.474 0 0 0 9.802 2.69c.081.028.162.046.245.053a108.948 108.948 0 0 0 23.643 2.655v21.473c0 .579.469 1.049 1.047 1.049s1.047-.47 1.047-1.049V49.441a109.206 109.206 0 0 0 32.254-5.414l-.595 12.559zM26.152 29.555c1.045 9.721 8.71 14.099 13.916 14.099 5.205 0 12.87-4.38 13.916-14.1 1.535-.784 3.655-2.799 3.548-6.42-.02-.681-.081-2.752-1.566-3.314-1.472-.556-2.966.938-3.25 1.244-.395.423-.374 1.087.049 1.483s1.086.374 1.481-.049c.278-.297.725-.612.957-.686.071.136.209.509.235 1.385.105 3.591-2.63 4.595-2.739 4.634a1.053 1.053 0 0 0-.679.719l-.045.165a1.113 1.113 0 0 0-.034.19c-.801 9.562-8.346 12.655-11.875 12.655s-11.074-3.093-11.875-12.655a1.057 1.057 0 0 0-.035-.193l-.045-.164a1.047 1.047 0 0 0-.679-.715c-.028-.011-2.846-.993-2.739-4.634.026-.877.164-1.25.236-1.386.232.071.666.379.956.686a1.048 1.048 0 1 0 1.53-1.434c-.285-.305-1.783-1.798-3.25-1.244-1.485.561-1.546 2.634-1.566 3.315-.104 3.618 2.017 5.633 3.553 6.419z"/></g></svg>