<svg id="Shape_1_1_" xmlns="http://www.w3.org/2000/svg" viewBox="0 0 76.5 76.5"><style>.st0{opacity:.3}.st1{fill:#75cf2d}</style><g id="Shape_1" class="st0"><path class="st1" d="M39.484 46.898V29.613h35.782l-8.329-11.105 8.329-11.105H39.484v-.227c1.433-.511 2.468-1.868 2.468-3.475A3.707 3.707 0 0 0 38.25-.001a3.707 3.707 0 0 0-3.702 3.702c0 1.606 1.035 2.964 2.468 3.475v39.723C16.162 47.143 0 53.55 0 61.693 0 69.996 16.802 76.5 38.25 76.5S76.5 69.997 76.5 61.693c0-8.143-16.162-14.55-37.016-14.795zM70.331 9.871l-6.478 8.637 6.478 8.637H39.484V9.871h30.847zM38.25 2.467c.68 0 1.234.554 1.234 1.234s-.554 1.234-1.234 1.234c-.68 0-1.234-.554-1.234-1.234s.554-1.234 1.234-1.234zm1.234 60.46v-8.616c15.312.216 24.677 4.371 24.677 7.382 0 3.091-9.857 7.404-25.911 7.404-16.054 0-25.911-4.313-25.911-7.404 0-3.011 9.365-7.166 24.677-7.382v8.616h2.468zM38.25 74.032c-21.404 0-35.782-6.38-35.782-12.339 0-5.842 13.831-12.087 34.548-12.328v2.467c-13.384.2-27.145 3.642-27.145 9.861 0 6.411 14.621 9.871 28.379 9.871 13.758 0 28.379-3.46 28.379-9.871 0-6.22-13.761-9.661-27.145-9.861v-2.467c20.718.241 34.548 6.485 34.548 12.328 0 5.959-14.378 12.339-35.782 12.339zm6.169-51.823h-2.468v2.468h2.468v-2.468zm4.936 0h-2.468v2.468h2.468v-2.468zm4.935 0h-2.468v2.468h2.468v-2.468z"/></g></svg>