<svg id="insta_1_" xmlns="http://www.w3.org/2000/svg" viewBox="0 0 9 9"><style>.st0{fill:#0d47a1}</style><path class="st0" d="M4.5 3.585a.915.915 0 0 0 0 1.828.915.915 0 0 0 0-1.828zm1.212-1.311H3.288c-.559 0-1.013.455-1.013 1.013v2.424c0 .558.454 1.013 1.013 1.013h2.424c.559 0 1.013-.454 1.013-1.013V3.287c0-.559-.454-1.013-1.013-1.013zM4.5 5.893a1.395 1.395 0 0 1 0-2.788 1.395 1.395 0 0 1 0 2.788zm1.701-2.594a.355.355 0 0 1-.498 0 .355.355 0 0 1 0-.498.355.355 0 0 1 .498 0 .351.351 0 0 1 0 .498zm-1.703-3.3a4.5 4.5 0 1 0 .004 9 4.5 4.5 0 0 0-.004-9zm2.707 5.712c0 .823-.67 1.493-1.493 1.493H3.288c-.823 0-1.493-.67-1.493-1.493V3.287c0-.823.67-1.493 1.493-1.493h2.424c.823 0 1.493.67 1.493 1.493v2.424z" id="insta"/></svg>