<svg id="Layer_1" xmlns="http://www.w3.org/2000/svg" viewBox="-300 391.92 9.84 10.08"><style>.st0{fill:#ff8400}</style><g id="Shape_1_1_"><path class="st0" d="M-290.455 398.772c.207-.264.307-.546.294-.837a1.29 1.29 0 0 0-.275-.725c.138-.341.19-.879-.269-1.296-.337-.305-.908-.443-1.7-.405-.557.025-1.022.129-1.042.133h-.002a9.32 9.32 0 0 0-.332.067c-.008-.135.015-.47.265-1.225.296-.897.279-1.584-.055-2.044-.352-.483-.913-.521-1.078-.521a.531.531 0 0 0-.409.186c-.234.272-.207.773-.177 1.005-.28.746-1.063 2.576-1.725 3.084a.163.163 0 0 0-.034.03 2.265 2.265 0 0 0-.415.619.882.882 0 0 0-.419-.105h-1.291a.88.88 0 0 0-.881.877v3.425a.88.88 0 0 0 .881.877h1.291a.883.883 0 0 0 .508-.16l.497.059c.076.011 1.431.182 2.822.154.252.019.489.03.709.03.379 0 .709-.03.984-.088.648-.138 1.09-.412 1.315-.815.171-.307.171-.614.144-.807.421-.379.495-.799.48-1.094a1.41 1.41 0 0 0-.086-.424zm-7.064 2.266c0 .171-.14.308-.309.308h-1.291v.002a.308.308 0 0 1-.309-.308v-3.427c0-.171.14-.308.309-.308h1.291c.171 0 .309.139.309.308v3.425zm6.522-2.512a.282.282 0 0 0-.039.343c0 .002.087.15.097.352.015.276-.119.521-.398.729a.285.285 0 0 0-.097.324c0 .002.091.28-.057.544-.141.254-.457.435-.935.536-.383.083-.904.097-1.543.047h-.03a21.08 21.08 0 0 1-2.752-.15h-.002l-.214-.025a.876.876 0 0 0 .019-.186v-3.427a.901.901 0 0 0-.04-.261c.038-.142.144-.456.394-.724.95-.75 1.88-3.282 1.92-3.392a.27.27 0 0 0 .013-.141c-.036-.236-.024-.524.027-.611.112.002.415.034.597.284.216.298.207.829-.025 1.533-.356 1.073-.386 1.638-.104 1.887.14.124.326.13.461.082.129-.029.252-.055.368-.074l.028-.006c.65-.141 1.814-.228 2.218.139.343.312.099.725.072.769a.281.281 0 0 0 .051.367c.002.002.224.211.235.491.009.188-.08.38-.264.57z" id="Shape_1"/></g></svg>