<svg id="Forma_1_1_" xmlns="http://www.w3.org/2000/svg" viewBox="0 0 69.9 77.4"><style>.st0{opacity:.3}.st1{fill-rule:evenodd;clip-rule:evenodd;fill:#75cf2d}</style><g id="Forma_1" class="st0"><path class="st1" d="M19.476 17.182c.135-.017.247-.053.352-.103.043.028.075.068.123.09l4.569 2.13c.196.091.412.119.626.085 6.403-1.089 13.455-1.089 19.86 0a1.07 1.07 0 0 0 .662-.102l4.139-2.13c.042-.022.07-.06.108-.087.106.052.213.103.332.118h.004a.96.96 0 0 0 .131.008h.021a1.058 1.058 0 0 0 1.038-1.271C51.438 8.055 51.292 0 34.861 0c-16.58 0-16.58 8.202-16.58 16.132 0 .305.132.593.361.794.227.201.527.297.834.256zm25.536.056c-6.429-1.051-13.464-1.05-19.893.003l-2.985-1.391c2.531-.927 7.114-2.075 11.967-2.075.245 0 .489.002.787.008 5.175-.11 10.172 1.137 12.786 2.084l-2.662 1.371zM34.861 2.119c13.294 0 14.368 5.226 14.454 12.153-2.901-1.293-8.427-2.613-13.695-2.613-.262 0-.524.003-.733.01-5.525-.143-11.436 1.244-14.481 2.603.087-6.928 1.16-12.153 14.455-12.153zm1.716 22.901a1.06 1.06 0 0 0-.804.37c-.054.064-.078.143-.115.215h-1.399c-.037-.073-.061-.151-.115-.215a1.058 1.058 0 0 0-.804-.37h-8.347a1.057 1.057 0 0 0-1.059 1.077c.018.99.187 4.311 1.643 5.494.93.755 2.381 1.224 3.787 1.224 1.344 0 2.473-.425 3.179-1.198.763-.836 1.272-2.591 1.562-3.895h1.707c.29 1.304.798 3.058 1.562 3.895.706.773 1.835 1.198 3.179 1.198 1.406 0 2.857-.469 3.787-1.224 1.455-1.183 1.625-4.504 1.643-5.494a1.057 1.057 0 0 0-1.059-1.077h-8.347zm-5.599 5.17c-.295.324-.884.509-1.615.509-.914 0-1.899-.302-2.451-.75-.365-.297-.664-1.549-.793-2.811h5.942c-.273 1.242-.685 2.615-1.083 3.052zm12.025-.242c-.551.449-1.537.75-2.451.75-.731 0-1.32-.186-1.615-.509-.398-.435-.809-1.809-1.082-3.05h5.942c-.129 1.261-.428 2.512-.794 2.809zm-22.824-.409c1.099 10.33 9.246 14.983 14.78 14.983s13.68-4.653 14.779-14.983c1.623-.817 3.89-2.946 3.778-6.794-.022-.715-.086-2.89-1.633-3.475-1.531-.581-3.101.989-3.401 1.309a1.06 1.06 0 0 0 1.547 1.447c.352-.376.941-.769 1.057-.803.002.003.273.279.311 1.584.113 3.864-2.839 4.944-2.958 4.985a1.06 1.06 0 0 0-.686.727l-.048.175a1.094 1.094 0 0 0-.033.19c-.858 10.214-8.936 13.519-12.714 13.519-3.779 0-11.857-3.305-12.714-13.519a1.036 1.036 0 0 0-.033-.19l-.048-.175a1.071 1.071 0 0 0-.68-.724c-.126-.044-3.078-1.124-2.965-4.989.035-1.165.254-1.509.238-1.545.221.015.771.385 1.13.764a1.059 1.059 0 0 0 1.547-1.447c-.3-.32-1.871-1.892-3.4-1.309-1.547.585-1.611 2.761-1.633 3.475-.112 3.849 2.155 5.978 3.779 6.795zm11.148 20.706a1.06 1.06 0 0 0-1.034 1.286l1.225 5.588a1.06 1.06 0 0 0 1.035.833h4.766c.498 0 .928-.348 1.035-.833l1.225-5.588a1.058 1.058 0 0 0-1.034-1.286h-7.218zm5.141 5.588h-3.062l-.761-3.47h4.583l-.76 3.47zm16.75 1.059c-2.068 0-3.526.455-4.458 1.393-1.249 1.254-1.239 3.01-1.229 4.56l.001 7.216a5.693 5.693 0 0 0 5.687 5.686 5.692 5.692 0 0 0 5.686-5.686l.001-7.216c.01-1.549.019-3.305-1.229-4.56-.933-.938-2.391-1.393-4.459-1.393zm3.569 5.941l-.002 7.227a3.573 3.573 0 0 1-3.568 3.569 3.568 3.568 0 0 1-3.24-2.091h2.086a1.059 1.059 0 1 0 0-2.118h-2.416v-1.718h2.417a1.058 1.058 0 1 0 0-2.118h-2.417v-1.855h2.417a1.058 1.058 0 1 0 0-2.118h-2.389c.044-.754.173-1.418.586-1.833.507-.51 1.502-.769 2.957-.769 1.454 0 2.448.26 2.956.769.627.628.621 1.807.613 3.055zm-11.091-3.432H24.174c-.586 0-1.059.474-1.059 1.059v12.575c0 .585.473 1.059 1.059 1.059h21.523c.586 0 1.059-.474 1.059-1.059V60.46c0-.585-.474-1.059-1.06-1.059zm-1.059 12.575H25.233V61.518h19.404v10.458zm5.755-30.865l.008-.125a1.06 1.06 0 0 0-2.114-.138l-.299 4.548-3.656-1.717a1.057 1.057 0 0 0-1.408.508 1.06 1.06 0 0 0 .508 1.409l5.06 2.375a1.06 1.06 0 0 0 1.507-.89l.25-3.791c4.028 1.458 17.533 8.201 17.533 33.049a1.058 1.058 0 1 0 2.118 0c.001-27.165-15.708-33.978-19.507-35.228zM16.691 56.892c-2.067 0-3.527.455-4.458 1.393-1.247 1.254-1.238 3.009-1.228 4.558l.001 7.217a5.692 5.692 0 0 0 5.686 5.686 5.693 5.693 0 0 0 5.687-5.686l.001-7.216c.01-1.549.019-3.305-1.229-4.56-.933-.937-2.392-1.392-4.46-1.392zm3.569 8.693h-2.417a1.058 1.058 0 1 0 0 2.118h2.417v1.718h-2.416a1.058 1.058 0 1 0 0 2.118h2.086a3.574 3.574 0 0 1-3.241 2.093 3.573 3.573 0 0 1-3.568-3.569l-.001-7.229c-.007-1.246-.014-2.424.612-3.054.507-.51 1.502-.769 2.957-.769 1.455 0 2.45.258 2.957.769.413.415.541 1.079.586 1.833h-2.389a1.059 1.059 0 1 0 0 2.118h2.417v1.854zm-.594-22.315l.251 3.813a1.056 1.056 0 0 0 1.057.99c.154 0 .307-.033.45-.1l5.06-2.375a1.058 1.058 0 1 0-.901-1.917l-3.656 1.717-.299-4.548a1.068 1.068 0 0 0-1.126-.988 1.06 1.06 0 0 0-.988 1.126l.007.12C15.751 42.342 0 49.138 0 76.34a1.059 1.059 0 1 0 2.118.001c0-25.147 13.495-31.677 17.548-33.071zm15.27 28.506a5.036 5.036 0 0 0 5.03-5.03c0-2.773-2.257-5.03-5.03-5.03s-5.03 2.256-5.03 5.03a5.034 5.034 0 0 0 5.03 5.03zm0-7.942a2.914 2.914 0 0 1 2.912 2.912 2.915 2.915 0 0 1-2.912 2.912 2.914 2.914 0 0 1-2.912-2.912 2.914 2.914 0 0 1 2.912-2.912z"/></g></svg>