<svg xmlns="http://www.w3.org/2000/svg" viewBox="0 0 49.92 52.32"><style>.st0{opacity:.302;enable-background:new}.st1{fill-rule:evenodd;clip-rule:evenodd;fill:#75cf2d}</style><g id="Forma_1_1_" class="st0"><path class="st1" d="M12.82 20.602c.915 8.445 7.57 12.248 12.091 12.248s11.176-3.804 12.091-12.248c1.316-.684 3.227-2.486 3.134-5.645-.017-.568-.068-2.294-1.255-2.743-1.178-.445-2.417.794-2.654 1.047a.728.728 0 0 0 1.061.994c.377-.404.931-.724 1.078-.681.003.001.282.206.318 1.427.098 3.344-2.512 4.392-2.619 4.434a.725.725 0 0 0-.469.62c-.719 8.571-7.508 11.343-10.684 11.343s-9.965-2.772-10.685-11.343a.73.73 0 0 0-.466-.618c-.111-.044-2.721-1.092-2.623-4.435.036-1.22.315-1.426.316-1.427.149-.043.689.267 1.08.68a.727.727 0 1 0 1.061-.994c-.236-.253-1.475-1.493-2.654-1.047-1.188.448-1.239 2.176-1.255 2.743-.093 3.158 1.817 4.96 3.134 5.645zm22.436 10.971l.074-1.35a.727.727 0 0 0-1.451-.079l-.288 5.266-3.41-1.602a.726.726 0 1 0-.617 1.316l4.385 2.059a.725.725 0 0 0 1.034-.618l.19-3.477c2.895 1.098 13.054 5.852 13.054 18.505a.728.728 0 0 0 1.454 0c-.001-14.197-11.94-19.144-14.425-20.02zM13.742 11.844h.003c.4 0 .725-.323.727-.724.009-1.894.597-3.633 1.656-4.893a.726.726 0 1 0-1.113-.935c-1.277 1.52-1.987 3.589-1.997 5.823-.002.4.322.727.724.729zm12.583 3.126a.726.726 0 0 0-.551.254.72.72 0 0 0-.138.257h-1.449a.73.73 0 0 0-.138-.257.726.726 0 0 0-.551-.254h-7.291a.726.726 0 0 0-.726.739c.011.6.126 3.645 1.362 4.65.777.632 1.997 1.025 3.182 1.025 1.117 0 2.052-.35 2.63-.983.669-.734 1.111-2.339 1.352-3.467h1.808c.241 1.128.683 2.733 1.352 3.467.578.634 1.513.983 2.63.983 1.184 0 2.404-.392 3.182-1.025 1.236-1.005 1.351-4.049 1.362-4.65a.726.726 0 0 0-.726-.739h-7.29zm-4.743 4.451c-.295.324-.862.509-1.556.509-.841 0-1.752-.281-2.267-.699-.395-.321-.684-1.584-.787-2.807h5.655c-.243 1.179-.643 2.556-1.045 2.997zm10.481-.189c-.515.418-1.425.699-2.266.699-.694 0-1.261-.186-1.557-.509-.402-.441-.802-1.819-1.045-2.998h5.655c-.102 1.223-.392 2.487-.787 2.808zM18.142 4.289h10.666c.236.003 5.792.152 5.792 6.708a.728.728 0 0 0 1.454 0c0-7.974-7.154-8.161-7.236-8.162H18.142a.728.728 0 0 0 0 1.454zm1.215-2.836h10.079c.272-.011 6.816-.029 7.599 6.667a.728.728 0 0 0 1.444-.168C37.545-.03 29.491-.003 29.425 0H19.357a.728.728 0 0 0 0 1.453zM39.27 48.348a.728.728 0 0 0-.727.727v2.519a.727.727 0 0 0 1.454 0v-2.519a.727.727 0 0 0-.727-.727zm-17.935-2.15l-.298 1.715 7.287 3.68h1.099c-.062-.347-.147-.839-.25-1.43l-7.838-3.965zm-.937 5.395h4.703l-4.322-2.183c-.161.931-.295 1.698-.381 2.183zm-9.988-3.245a.728.728 0 0 0-.727.727v2.519a.728.728 0 0 0 1.454 0v-2.519a.728.728 0 0 0-.727-.727zm10.055-14.19a.727.727 0 0 0-.966-.349l-3.41 1.602-.288-5.266a.727.727 0 0 0-1.451.079l.074 1.35C11.939 32.449 0 37.396 0 51.593a.728.728 0 0 0 1.454 0c0-12.802 10.123-17.44 13.053-18.515l.191 3.487a.727.727 0 0 0 1.034.618l4.385-2.059a.726.726 0 0 0 .348-.966zm7.098-.419h-5.304a.728.728 0 0 0-.727.727c0 1.304.659 2.217 1.435 2.813-.04.145-.105.45-.188.873l4.704 2.36c-.296-1.637-.533-2.887-.628-3.232.776-.595 1.435-1.508 1.435-2.812a.729.729 0 0 0-.727-.729zm-2.651 2.925c-.395-.124-1.427-.527-1.794-1.472h3.588c-.366.946-1.393 1.348-1.794 1.472zm3.576 9.545l-6.575-3.312c-.105.591-.211 1.197-.317 1.804l7.268 3.676a994.55 994.55 0 0 0-.376-2.168zm-6.31-4.806l5.999 3.022c-.126-.721-.252-1.44-.374-2.128l-5.305-2.661c-.098.533-.206 1.132-.32 1.767z" id="Forma_1"/></g></svg>