<svg xmlns="http://www.w3.org/2000/svg" viewBox="0 0 322 351"><style>.st0{enable-background:new}.st1{fill:#ff8400}</style><g id="Forma_1_1_" class="st0"><path class="st1" d="M321.2 298.1c-.4-.3-.8-.3-1.2 0l-15.8 11.2C297 198.8 236.1 88.8 113 32.3 79.5 16.9 42.6 6.4 4.2 2 1 1.6-.5 5.7 2.8 6.1c67.4 7.7 129.4 34.5 177.8 72.7 51.4 40.6 85.6 93.3 103.5 149.2 8.5 26.6 13.3 53.9 15 81.4l-14.4-11.3c-.4-.3-.8-.3-1.2 0l-.1.1c-.3.3-.4.7-.2 1l17.5 51.6c.1.4.5.7.9.7s.8-.3 1-.7l19-51.5c.1-.4 0-.9-.4-1.2z" id="Forma_1"/></g><g id="Фигура_3_1_" class="st0"><path class="st1" d="M184.3 27.5c-.1-1.2-.7-2.2-1.8-2.9-1.3-.9-3-.9-4.9-.2l-.1-.1 1.4-1.8-2.6-1.7L161 36.5l3.4 2.2 3.2-3.3c.9-.9 1.7-1.9 2.6-3l.1.1c0 .9.1 1.6.3 2.2.3.6.7 1 1.3 1.4 1.1.7 2.3.9 3.7.7 1.4-.2 2.7-.8 4.1-1.8 1.4-1 2.5-2.2 3.4-3.6 1-1.4 1.4-2.7 1.2-3.9zm-4.7 1.9c-.6.9-1.3 1.7-2.1 2.4-.9.7-1.7 1.2-2.5 1.4-.8.2-1.4.2-1.9-.2-.5-.3-.7-.7-.8-1.3 0-.5.1-1.1.5-1.7.7-1 1.4-1.8 2.2-2.5.8-.7 1.6-1.1 2.4-1.3.8-.2 1.4-.1 2 .2 1 .7 1.1 1.7.2 3zm6.7 9.3l.2-.2.5.4c2.2 1.6 4.2 2.5 5.9 2.6 1.7.1 3.1-.5 4-1.8.7-1 1-2.1.7-3.2-.3-1.1-1.1-2.1-2.3-3-1.3-.9-2.7-1.4-4.1-1.5-1.5-.1-2.9.3-4.4 1.1-1.5.8-2.7 1.9-3.8 3.4-1.1 1.5-1.5 2.9-1.2 4.3.2 1.4 1.1 2.7 2.6 3.8 1.6 1.1 3.2 1.8 4.9 2.1l1.8-2.4c-1-.2-1.8-.4-2.4-.6-.6-.2-1.2-.6-1.8-1-.7-.5-1.1-1.1-1.2-1.7-.1-.6.1-1.3.6-1.9v-.4zm4.7-3.4c1-.2 1.8 0 2.4.4.8.5.9 1.2.4 1.8-.4.6-1.1.8-2 .7-.9-.1-1.9-.6-3-1.4l-.5-.4c.8-.5 1.7-1 2.7-1.1zm24.9 15l-4.9 3.9c-1.4 1.1-2.7 1.9-3.9 2.2-1.2.4-2 .3-2.7-.2-.7-.6-.7-1.3 0-2.1.3-.3.7-.7 1.2-1.1l6.9-5.5-3.1-2.6-4.9 3.9c-1.5 1.2-2.8 1.9-3.9 2.2-1.1.3-2 .2-2.6-.3-.7-.6-.7-1.3 0-2.1.3-.3.7-.7 1.2-1.1l6.9-5.5-3.1-2.6-6.7 5.4c-.8.6-1.3 1.1-1.8 1.6-.9 1.1-1.3 2.1-1.3 3.1s.5 1.8 1.4 2.6c1.5 1.2 3.3 1.4 5.6.7l.1.1c-1 1.8-.7 3.3.8 4.5 1.4 1.2 3.3 1.4 5.5.7l.1.1-2 1.9L207 62l11.9-9.4-3-2.3zm3 18.9c-.6-.3-1.1-.7-1.7-1.3-.6-.6-.9-1.2-.9-1.9s.3-1.3.8-1.9l.2-.2.2-.2.5.5c2 1.9 3.8 3 5.5 3.4 1.7.4 3.1-.1 4.2-1.3.9-.9 1.2-1.9 1.1-3.1-.1-1.1-.8-2.2-1.9-3.3-1.1-1.1-2.4-1.8-3.9-2.1-1.5-.3-3-.1-4.5.5-1.6.6-3 1.6-4.2 2.9-1.2 1.3-1.8 2.7-1.8 4.1.1 1.4.8 2.8 2.1 4.1 1.4 1.3 2.9 2.2 4.6 2.7l2.1-2.2c-1.1-.1-1.8-.4-2.4-.7zm3.5-8c1 0 1.8.2 2.3.7.7.6.7 1.3.2 1.9-.5.5-1.2.7-2 .5-.9-.2-1.8-.8-2.8-1.7l-.4-.4c.8-.6 1.7-.9 2.7-1zm17.3 12.2l-4.9 3.1-3.2-3.4 5-3.1-2.8-2.9-12.9 8 2.8 2.9 5.3-3.3 3.2 3.3-5.3 3.3 2.8 2.9 12.9-8-2.9-2.8zM251 86.1l-5.5 3c-1.6.9-3 1.4-4.2 1.6-1.2.2-2.1-.1-2.6-.7-.6-.7-.5-1.4.3-2.2.3-.3.8-.6 1.3-.9l7.7-4.3-2.6-3-7.1 4c-.9.5-1.7 1.1-2.3 1.6-1 .9-1.6 1.8-1.7 2.8-.1 1 .2 1.9 1 2.8 1.2 1.4 3 1.9 5.4 1.6l.1.1-2.3 1.6 2 2.3 13.2-7.3-2.7-3zm9.3 17.5c1-.8 1.5-1.7 1.5-2.9 0-1.1-.5-2.3-1.4-3.6-1-1.2-2.2-2.1-3.6-2.6s-2.9-.6-4.5-.2c-1.6.4-3.2 1.1-4.6 2.2-1.4 1.1-2.2 2.4-2.4 3.8-.1 1.4.4 2.9 1.5 4.3 1.2 1.5 2.6 2.6 4.1 3.4l2.4-1.9c-.9-.4-1.6-.9-2.1-1.2-.5-.4-1-.9-1.5-1.5-.5-.7-.8-1.3-.7-2 .1-.6.4-1.2 1.1-1.7l.2-.2.2-.2.4.5c1.7 2.2 3.4 3.5 5 4.1 1.7.9 3.1.7 4.4-.3zm-4.5-2.8c-.8-.3-1.6-1-2.5-2.1l-.4-.5c.9-.5 1.9-.6 2.9-.5 1 .1 1.7.5 2.2 1.1.6.7.5 1.4-.1 1.9-.6.4-1.3.5-2.1.1zm-1.7 9.4c-.4-.1-.8.1-1.2.4-.3.2-.5.5-.5.8 0 .3.1.6.3 1 .3.4.7.6 1.1.7.4.1.8 0 1.2-.3.3-.2.5-.5.5-.8 0-.3-.1-.6-.3-.9-.3-.6-.7-.8-1.1-.9zm9.2-4.5l-7.3 3.8 1.2 1.6 7.8-3.2-1.7-2.2z" id="Фигура_3"/></g></svg>