<svg id="Forma_1_1_" xmlns="http://www.w3.org/2000/svg" viewBox="0 0 76.2 74.7"><style>.st0{opacity:.3}.st1{fill-rule:evenodd;clip-rule:evenodd;fill:#75cf2d}</style><g id="Forma_1" class="st0"><path class="st1" d="M46.148 26.945c-.561 0-1.015.455-1.015 1.017s.454 1.017 1.015 1.017h19.548c.561 0 1.015-.455 1.015-1.017s-.454-1.017-1.015-1.017H46.148zm-17.764-6.64h-5.157a1.016 1.016 0 0 0 0 2.034h5.157c.561 0 1.015-.455 1.015-1.017 0-.561-.453-1.017-1.015-1.017zM52.162 2.034h7.522A1.016 1.016 0 0 0 59.683 0h-7.522a1.018 1.018 0 0 0 .001 2.034zM43.79 26.279h24.265c.561 0 1.015-.456 1.015-1.017V3.732c0-.561-.454-1.017-1.015-1.017H43.79c-.561 0-1.015.456-1.015 1.017v21.53c0 .561.454 1.017 1.015 1.017zm1.015-21.53h22.236v19.496H44.805V4.749zm14.322 6.931l-3.031 1.989-1.26-1.406a1.013 1.013 0 0 0-1.433-.078 1.018 1.018 0 0 0-.077 1.436l1.842 2.056a1.014 1.014 0 0 0 1.311.17l3.761-2.468a1.015 1.015 0 1 0-1.113-1.699zm-3.204-5.761c-4.721 0-8.563 3.848-8.563 8.58 0 4.731 3.841 8.58 8.563 8.58s8.563-3.848 8.563-8.58c-.001-4.732-3.843-8.58-8.563-8.58zm0 15.124c-3.602 0-6.533-2.936-6.533-6.546 0-3.61 2.931-6.547 6.533-6.547 3.602 0 6.533 2.937 6.533 6.547s-2.932 6.546-6.533 6.546zm-54.905 8h34.02a1.016 1.016 0 1 0 0-2.034H1.018a1.016 1.016 0 0 0 0 2.034zm0 13.234h34.02a1.016 1.016 0 1 0 0-2.034H1.018a1.016 1.016 0 0 0 0 2.034zm35.034 1.63c0-.561-.454-1.017-1.015-1.017H1.018a1.016 1.016 0 1 0 0 2.034h34.02c.561 0 1.014-.456 1.014-1.017zm-10.298 4.838c-.028-.057-.04-.122-.072-.177-.639-1.114-1.772-1.452-2.151-1.536-.435-.149-1.647-.417-4.723-.417h-.021c-4.634.001-5.561 2.286-5.634 2.499l-2.866 7.096c-1.174.981-2.125 2.319-2.661 4.041-1.458 4.13-4.901 12.971-4.936 13.06a1.015 1.015 0 0 0 1.89.74c.031-.082 2.869-7.366 4.502-11.857 1.244-1.249 3.939-2.181 6.307-2.013 1.713.122 3.214.806 3.826 1.745.181.277.278.578.313.902a756.156 756.156 0 0 0-3.359 10.552 1.017 1.017 0 0 0 .969 1.318c.433 0 .834-.279.969-.716.027-.088 2.76-8.903 4.221-13.113a5.227 5.227 0 0 0 .183-1.729c.044 0 .079.003.124.003 2.035 0 5.487-.488 6.33-3.681.646-2.441 1.112-4.207.137-5.47-.614-.794-1.662-1.184-3.348-1.247zm-5.361 11.51c-.055.156-.114.332-.172.5-1.122-1.362-3.129-1.983-4.725-2.096-1.784-.126-3.817.282-5.465 1.075 1.705-3.315 5.465-3.934 7.855-3.218.774.233 3.233 1.188 2.507 3.739zm6.602-5.285c-.583 2.203-3.835 2.201-5.087 2.114-.669-1.141-1.845-2.039-3.438-2.517-1.713-.513-3.616-.485-5.367.088l1.93-4.78c.006-.012.613-1.226 3.753-1.227h.021c3.127 0 3.997.282 4.009.282.077.037.176.067.26.083.006.001.597.12.851.579.278.501.084 1.266-.128 1.819a1.015 1.015 0 0 0 1.894.729c.182-.475.279-.916.338-1.343.993.08 1.352.295 1.463.438.364.471-.052 2.043-.499 3.735zm49.168 7.977L68.598 35.15a1.016 1.016 0 0 0-.979-.749H41.928c-.458 0-.859.307-.979.749l-7.565 27.797a1.013 1.013 0 0 0 .98 1.284h21.223a795.69 795.69 0 0 1 3.097 9.751 1.016 1.016 0 0 0 1.27.67c.535-.167.834-.736.668-1.272-.023-.073-1.898-6.119-3.359-10.551.034-.325.132-.626.313-.903.612-.938 2.113-1.623 3.827-1.745 2.356-.168 5.058.765 6.305 2.014 1.624 4.462 4.471 11.775 4.503 11.856a1.015 1.015 0 1 0 1.89-.739c-.025-.066-1.91-4.904-3.477-9.08h4.561c.317 0 .614-.149.807-.4.19-.253.255-.58.171-.885zm-21.279-5.856c-1.251.1-4.581.152-5.081-2.083l-.125-.551c-.334-1.465-.649-2.85-.326-3.253.084-.109.396-.329 1.402-.408.059.426.155.868.338 1.344.005.013.016.021.022.034a1 1 0 0 0 .635.604 1.015 1.015 0 0 0 1.264-.679l.952-3.16c.205-.06 1.18-.291 4.016-.291h.021c3.141.001 3.747 1.214 3.753 1.229l1.93 4.781a9.037 9.037 0 0 0-5.367-.089c-1.592.476-2.768 1.375-3.434 2.522zm6.409 1.569c-1.598.114-3.604.734-4.727 2.097-.051-.15-.104-.307-.153-.445-.743-2.606 1.715-3.563 2.487-3.794 2.384-.715 6.128-.101 7.849 3.214-1.647-.794-3.677-1.201-5.456-1.072zm8.573 3.536c-.258-.7-.494-1.352-.691-1.91-.54-1.734-1.494-3.08-2.669-4.066l-2.853-7.061c-.09-.26-1.018-2.545-5.651-2.546h-.021c-1.545 0-2.619.068-3.362.155l1.629-5.409a1.015 1.015 0 0 0-1.942-.589l-1.996 6.627c-.42.234-.877.599-1.206 1.17-.03.054-.043.116-.07.172-1.223.039-2.527.262-3.27 1.193-.935 1.169-.571 2.767-.068 4.977l.124.544c.716 3.195 4.046 3.715 6.136 3.715.119 0 .219-.005.33-.008a5.331 5.331 0 0 0 .191 1.764c.134.385.281.82.433 1.273H35.691l7.011-25.764h24.142l7.011 25.764h-3.989zM1.018 31.689h34.02c.561 0 1.015-.455 1.015-1.017s-.454-1.017-1.015-1.017H1.018c-.561 0-1.015.455-1.015 1.017 0 .563.454 1.017 1.015 1.017zm0 2.647h34.02a1.016 1.016 0 1 0 0-2.034H1.018c-.561 0-1.015.455-1.015 1.017 0 .562.454 1.017 1.015 1.017zm0-7.94h34.04a1.016 1.016 0 0 0 .8-1.644l-6.222-12.131a1.017 1.017 0 0 0-.903-.552H7.323c-.381 0-.729.213-.903.552L.115 24.914a1.017 1.017 0 0 0 .903 1.482zm6.924-12.293h20.172l5.262 10.259H2.681l5.261-10.259zm-6.924 22.88h34.02a1.016 1.016 0 0 0 0-2.034H1.018c-.561 0-1.015.455-1.015 1.017 0 .562.454 1.017 1.015 1.017zm0 2.646h34.02a1.016 1.016 0 1 0 0-2.034H1.018c-.561 0-1.015.455-1.015 1.017 0 .563.454 1.017 1.015 1.017z"/></g></svg>