<svg id="yell_x5F_hover_1_" xmlns="http://www.w3.org/2000/svg" viewBox="0 0 9.3 9"><style>.st0{fill:#0d47a1}</style><path class="st0" d="M4.646.001C2.081.001-.002 2.017-.002 4.499c0 2.486 2.083 4.502 4.648 4.502 2.569 0 4.652-2.016 4.652-4.502 0-2.485-2.083-4.498-4.652-4.498zm2.433 6.874c-.316-.088-1.026-.851-.888-.68 0 0-1.543.348-1.953.397-.298.036-.799.127-1.138-.396-.34-.524-1.026-2.633-1.071-3.199-.044-.568.27-.85.698-.872.43-.022 2.413.065 3.201.218.774.149 1.196.13 1.308.675.113.545-.066 2.332-.247 2.856 0 0 .406 1.089.09 1.001zM5.01 3.582l-.274.561-.549-1.126h-.822l.397.73.502.926v.975h.943v-.975l.898-1.656h-.82l-.275.565z" id="yell_x5F_hover"/></svg>