<svg id="youtube_1_" xmlns="http://www.w3.org/2000/svg" viewBox="0 0 9.3 9"><style>.st0{fill:#0d47a1}</style><path class="st0" d="M4.65-.001C2.085-.001.002 2.015.002 4.497c0 2.486 2.083 4.502 4.648 4.502 2.569 0 4.652-2.015 4.652-4.502 0-2.486-2.083-4.498-4.652-4.498zm2.858 5.506c-.031.376-.326.854-.735.923-1.316.098-2.878.085-4.243 0-.423-.053-.703-.55-.734-.923a10.477 10.477 0 0 1 0-2.019c.031-.376.317-.867.734-.914 1.348-.11 2.918-.085 4.243 0 .471.019.704.488.735.865.066.786.066 1.283 0 2.068zm-3.436.118l1.742-1.126-1.742-1.123v2.249z" id="youtube"/></svg>