<?xml version="1.0" encoding="utf-8"?>
<!-- Generator: Adobe Illustrator 19.2.1, SVG Export Plug-In . SVG Version: 6.00 Build 0)  -->
<svg version="1.1" id="Layer_1" xmlns="http://www.w3.org/2000/svg" xmlns:xlink="http://www.w3.org/1999/xlink" x="0px" y="0px"
	 viewBox="0 0 382.7 121.8" style="enable-background:new 0 0 382.7 121.8;" xml:space="preserve">
<style type="text/css">
	.st0{fill:#FFFFFF;}
	.st1{fill:#CD3128;}
	.st2{fill:#60AE54;}
	.st3{fill:#88BC50;}
</style>
<path class="st0" d="M88.5,34.3c0.4-0.7,0.3-0.7,2.2-5.2c-4.5-0.5-6.9-0.9-10.8-0.8c-5-2.6-10.7-4-16.7-4
	c-20.3,0-36.7,16.4-36.7,36.7c0,20.3,16.4,36.7,36.7,36.7c20.3,0,36.7-16.4,36.7-36.7C100,50.4,95.6,41,88.5,34.3"/>
<path id="_x35__24_" class="st1" d="M85.9,39.4c-0.1-0.1-0.2-0.1-0.3-0.1c-0.1,0-0.2,0-0.3,0.1c-1.5,1.8-3.3,3.3-5.2,4.6
	c-3.8,2.5-8.3,3.8-12.8,3.8c-8.6,0-13.4-4.2-17.5-7.3c-0.1-0.1-0.1-0.2-0.1-0.3c0-0.1,0.1-0.2,0.1-0.3c6.1-4.6,11.2-7.6,16.3-9.5
	c0.2-0.1,0.2-0.2,0.2-0.4c0-0.2-0.1-0.3-0.3-0.3c-0.9-0.1-1.8-0.1-2.8-0.1C46,29.7,32,43.7,32,60.9c0,9.5,4.3,18,11,23.8
	c0.1,0.1,0.2,0.1,0.3,0.1c0.1,0,0.2-0.1,0.2-0.2l1.3-4.1c0.1-0.2,0.2-0.3,0.4-0.2c16.7,3.7,23.9-5.4,22.7-11c-1-4.8-8.8-9-20.3-2.6
	c-0.1,0-0.2,0.1-0.3,0c0,0-0.1,0-0.1-0.1l0,0c-0.1-0.1-0.2-0.2-0.1-0.3l3.9-19.9v0c0-0.1,0.1-0.2,0.2-0.2c0.1,0,0.2,0,0.3,0
	c1.1,0.7,4.4,2.8,7.9,4.9c0.1,0.1,0.2,0.2,0.2,0.3c-0.1,0.9-0.6,4-0.8,5.3c0,0.1,0,0.2,0.1,0.3c0.1,0.1,0.2,0.1,0.3,0.1
	c19.2-5.2,23.2,6.9,22.7,12.7c-1.1,13.1-15.5,20-28.3,20.2c-0.2,0-0.3,0.1-0.3,0.3c0,0.2,0.1,0.3,0.2,0.4c3.1,1,6.4,1.6,9.8,1.6
	c17.2,0,31.2-14,31.2-31.2C94.5,52.6,91.2,45,85.9,39.4"/>
<path class="st2" d="M55.2,40.2c6.3-0.6,12.6-1.1,18.5-2.9c4.3-1.3,8.2-3.5,12.1-5.4C75.3,30.6,64.3,33.3,55.2,40.2"/>
<path class="st3" d="M55.2,40.2c10.4,7.9,25.6,3.9,30.6-8.3c0,0,0,0,0,0C76.4,36.4,66.1,39.2,55.2,40.2
	C55.2,40.2,55.2,40.2,55.2,40.2"/>
<path class="st0" d="M213.7,52.9c-3.9,0-6.3,2.6-8.3,5.6h-0.1c0-3.2-1.3-5.6-4.9-5.6c-4.3,0-6.6,3.2-8.1,5.9h-0.1
	c0.3-1,0.5-2.4,0.8-3.7c0.1-0.4,0-0.8-0.3-1.1c-0.3-0.3-0.7-0.5-1.1-0.5h-4.3l-3.9,21.7c-0.1,0.4,0,0.8,0.3,1.1
	c0.2,0.3,0.6,0.5,1,0.5h4.6l0.3-1.9c2.3-12.9,5.4-16.5,7.9-16.5c1.8,0,2,1.7,1.6,4L196.7,75c-0.1,0.4,0,0.8,0.3,1.2
	c0.3,0.3,0.7,0.5,1.1,0.5h4.4l0.3-1.9c2.2-12.8,5.4-16.5,7.9-16.5c1.7,0,1.9,1.6,1.5,4L210,75.2c-0.1,0.3,0,0.7,0.3,1
	c0.2,0.3,0.6,0.4,0.9,0.4h4.6l2.6-14.7c0.2-1.2,0.3-2.2,0.3-3.2C218.7,54.8,216.9,52.9,213.7,52.9z M239.5,48l2,0.4
	c0.6,0.1,1.1,0.2,1.3-0.8l0.7-2.5c0.2-0.8-0.1-0.9-0.8-1.1l-1.9-0.3c-0.4,0-1.1-0.2-1.3,0.7l-0.7,2.6
	C238.7,47.5,238.8,47.9,239.5,48z M180.5,53.5h-8.8c-6.6,0-10.9,2.8-10.9,8c0,2.8,1.9,4.5,3.9,4.8v0c-0.8,0.3-1.6,1.2-2.5,2.3
	c-1.6,2-2.8,3.4-3.8,3.4c-0.2,0-0.4,0.1-0.4,0.3l-0.5,3.7c0,0.2,0,0.3,0.1,0.4c0.1,0.1,0.3,0.2,0.4,0.2h1.9c3,0,4.1-1.2,7-4.9
	c2.3-3,3.1-3.9,4.5-3.9h1l-1.5,8.2c0,0.2,0,0.3,0.1,0.4c0.1,0.1,0.3,0.2,0.4,0.2h5.1c0.3,0,0.5-0.2,0.5-0.5l3.9-22.1
	c0-0.2,0-0.3-0.1-0.4C180.8,53.6,180.7,53.5,180.5,53.5z M173.1,63.6h-3.2c-2,0-2.9-0.7-2.9-2c0-2.3,1.4-3.4,4.2-3.4h3L173.1,63.6z
	 M165.1,42.8c24.6-1,63.5,3.5,63.5,3.5c0.5,0.1,0.9-0.1,1.1-0.6l0.4-1.2l0,0l0.7-2.1c0-0.1,0-0.3,0-0.4c-0.1-0.1-0.2-0.2-0.3-0.2
	c-4.8-0.6-40.3-5.3-66.1-4.6c-24.3,0.6-44.7,5.4-50.1,6.9c-0.4,0.1-0.7,0.5-0.8,0.9l-0.6,3.1c0,0.2,0,0.3,0.1,0.4
	c0.1,0.1,0.3,0.2,0.4,0.1c4.4-1,10.5-2,18.6-3l-5.4,30c-0.1,0.5-0.1,1.1,0.8,1.1h5.2c0.3,0,0.8-0.1,0.9-0.9l5.1-29.2
	c0,0,0.3-1.6,2.1-2l0,0c2.2-0.2,6-0.5,8.3-0.7l-5.6,31.7c-0.2,1.1,0.4,1,0.8,1h5.5c0.5,0,1.1-0.1,1.3-1.1l5.3-30.4h0
	c0,0,0.3-1.6,2-2C160.7,43.1,162.4,42.9,165.1,42.8z M233.1,47.1l2.3,0.3c0.6,0.1,1.1,0.2,1.3-0.8l0.7-2.6c0.2-0.8-0.1-1-0.8-1.1
	l-2.1-0.3c-0.4,0-1.1-0.2-1.3,0.8l-0.8,2.7C232.2,46.6,232.4,46.9,233.1,47.1z M241.9,58.9c0-3.8-2.7-6-7.1-6
	c-7.4,0-13.3,6.4-13.3,15.1c0,5.5,3,9.3,8.9,9.3c4.6,0,7.5-1.8,9.3-3.3l-2.4-4.1c-1.5,1.2-3.5,2.4-5.9,2.4c-2.6,0-3.5-1.6-3.7-4.2
	C235.4,67.2,241.9,64.5,241.9,58.9z M228.1,64.1c0.8-3.4,2.8-6.4,5.7-6.4c1.5,0,2.2,0.6,2.2,1.9C236,62,232.8,63.6,228.1,64.1z
	 M260.2,52.9c-4,0-6.2,2.8-8.1,6h-0.1c0.2-0.8,0.4-1.6,0.6-2.4c0.2-0.7,0-1.5-0.5-2.1c-0.5-0.6-1.2-0.9-1.9-0.9h-3L241.1,87h3.5
	c1.5,0,2.9-1.1,3.1-2.6l1.4-7.5c0.5,0.1,1.5,0.3,3.2,0.3c8,0,13.8-6.5,13.8-16.5C266.2,56,263.9,52.9,260.2,52.9z M252.3,72.7
	c-1.3,0-2-0.2-2.4-0.3l0.2-1.3c1.8-8.5,4.7-12.8,7.5-12.8c1.5,0,2.1,1.4,2.1,3.5C259.8,68.5,256.4,72.7,252.3,72.7z M357,52.9
	c-8.6,0-14.6,6.8-14.6,16.8c0,4.8,2.4,7.6,6,7.6c3.8,0,6-2.8,7.8-6.2h0.1c-0.2,1-0.4,2.3-0.6,3.5c-0.1,0.5,0.1,1.1,0.5,1.5
	c0.4,0.4,0.9,0.6,1.4,0.6h4c0-1.7,0.3-5.5,1.5-11.9l1.9-10.6C364,53.7,361.1,52.9,357,52.9z M358.1,59.1c-1.6,8.7-4.6,12.8-7.1,12.8
	c-1.5,0-2.1-1.1-2.1-3.3c0-6.5,3.4-11,7.2-11c0.9,0,1.8,0.1,2.2,0.3L358.1,59.1z M334.3,67.5c-0.7-1.4-1.3-2.2-2-2.9l10.2-11.1h-5.6
	c-1,0-1.9,0.4-2.5,1.1l-7.1,8.2H326l1.4-7.6c0.1-0.4,0-0.9-0.3-1.3c-0.3-0.3-0.7-0.6-1.2-0.6h-4.4l-4.1,23.2h4.5c1,0,1.9-0.7,2-1.7
	l1.4-7.8h0.7c1.4,0,2.2,1.5,3.7,4.6c1.7,3.6,2.5,5,5.5,5h2.4l0.9-4.6h-0.5C336.6,72.1,335.7,70.6,334.3,67.5z M309.2,54.9
	c-0.9,5.9-4,9.8-6.9,9.8c-1.5,0-2-1.1-1.6-3.7l0.7-4.6c0.1-0.7-0.1-1.5-0.6-2.1c-0.5-0.6-1.2-0.9-2-0.9h-3.1l-1.4,7.9
	c-0.2,1-0.3,2-0.3,2.9c0,3.9,1.9,6,5.1,6c4.1,0,6.8-2.7,8.5-5.6h0.1c-0.7,3.5-1.6,8.8-2,12.1h6c0.1-1.7,0.5-5.5,1.6-11.9l2-11.3
	h-6.1L309.2,54.9z M281.5,52.9c-7.5,0-13.1,6.7-13.1,14.7c0,5.3,3.3,9.7,9.3,9.7c7.7,0,13-6.3,13-14.7
	C290.7,57,287.4,52.9,281.5,52.9z M278.3,72.5c-2.4,0-3.6-2-3.6-5c0-4.3,2.4-9.8,6.3-9.8c2.4,0,3.5,1.8,3.5,5
	C284.5,66.9,282.4,72.5,278.3,72.5z"/>
</svg>
