<svg id="Layer_1" xmlns="http://www.w3.org/2000/svg" viewBox="0 0 382.7 121.8"><style>.st0{fill:#fff}.st1{fill:#cd3128}.st2{fill:#60ae54}.st3{fill:#88bc50}</style><path class="st0" d="M88.5 34.3c.4-.7.3-.7 2.2-5.2-4.5-.5-6.9-.9-10.8-.8-5-2.6-10.7-4-16.7-4-20.3 0-36.7 16.4-36.7 36.7 0 20.3 16.4 36.7 36.7 36.7 20.3 0 36.7-16.4 36.7-36.7.1-10.6-4.3-20-11.4-26.7"/><path id="_x35__24_" class="st1" d="M85.9 39.4c-.1-.1-.2-.1-.3-.1-.1 0-.2 0-.3.1-1.5 1.8-3.3 3.3-5.2 4.6-3.8 2.5-8.3 3.8-12.8 3.8-8.6 0-13.4-4.2-17.5-7.3-.1-.1-.1-.2-.1-.3 0-.1.1-.2.1-.3 6.1-4.6 11.2-7.6 16.3-9.5.2-.1.2-.2.2-.4s-.1-.3-.3-.3c-.9-.1-1.8-.1-2.8-.1C46 29.7 32 43.7 32 60.9c0 9.5 4.3 18 11 23.8.1.1.2.1.3.1.1 0 .2-.1.2-.2l1.3-4.1c.1-.2.2-.3.4-.2 16.7 3.7 23.9-5.4 22.7-11-1-4.8-8.8-9-20.3-2.6-.1 0-.2.1-.3 0 0 0-.1 0-.1-.1-.1-.1-.2-.2-.1-.3L51 46.4c0-.1.1-.2.2-.2h.3c1.1.7 4.4 2.8 7.9 4.9.1.1.2.2.2.3-.1.9-.6 4-.8 5.3 0 .1 0 .2.1.3.1.1.2.1.3.1 19.2-5.2 23.2 6.9 22.7 12.7-1.1 13.1-15.5 20-28.3 20.2-.2 0-.3.1-.3.3 0 .2.1.3.2.4 3.1 1 6.4 1.6 9.8 1.6 17.2 0 31.2-14 31.2-31.2 0-8.5-3.3-16.1-8.6-21.7"/><path class="st2" d="M55.2 40.2c6.3-.6 12.6-1.1 18.5-2.9 4.3-1.3 8.2-3.5 12.1-5.4-10.5-1.3-21.5 1.4-30.6 8.3"/><path class="st3" d="M55.2 40.2c10.4 7.9 25.6 3.9 30.6-8.3-9.4 4.5-19.7 7.3-30.6 8.3"/><path class="st0" d="M213.7 52.9c-3.9 0-6.3 2.6-8.3 5.6h-.1c0-3.2-1.3-5.6-4.9-5.6-4.3 0-6.6 3.2-8.1 5.9h-.1c.3-1 .5-2.4.8-3.7.1-.4 0-.8-.3-1.1-.3-.3-.7-.5-1.1-.5h-4.3l-3.9 21.7c-.1.4 0 .8.3 1.1.2.3.6.5 1 .5h4.6l.3-1.9c2.3-12.9 5.4-16.5 7.9-16.5 1.8 0 2 1.7 1.6 4L196.7 75c-.1.4 0 .8.3 1.2.3.3.7.5 1.1.5h4.4l.3-1.9c2.2-12.8 5.4-16.5 7.9-16.5 1.7 0 1.9 1.6 1.5 4L210 75.2c-.1.3 0 .7.3 1 .2.3.6.4.9.4h4.6l2.6-14.7c.2-1.2.3-2.2.3-3.2 0-3.9-1.8-5.8-5-5.8zm25.8-4.9l2 .4c.6.1 1.1.2 1.3-.8l.7-2.5c.2-.8-.1-.9-.8-1.1l-1.9-.3c-.4 0-1.1-.2-1.3.7l-.7 2.6c-.1.5 0 .9.7 1zm-59 5.5h-8.8c-6.6 0-10.9 2.8-10.9 8 0 2.8 1.9 4.5 3.9 4.8-.8.3-1.6 1.2-2.5 2.3-1.6 2-2.8 3.4-3.8 3.4-.2 0-.4.1-.4.3l-.5 3.7c0 .2 0 .3.1.4.1.1.3.2.4.2h1.9c3 0 4.1-1.2 7-4.9 2.3-3 3.1-3.9 4.5-3.9h1l-1.5 8.2c0 .2 0 .3.1.4.1.1.3.2.4.2h5.1c.3 0 .5-.2.5-.5l3.9-22.1c0-.2 0-.3-.1-.4 0 0-.1-.1-.3-.1zm-7.4 10.1h-3.2c-2 0-2.9-.7-2.9-2 0-2.3 1.4-3.4 4.2-3.4h3l-1.1 5.4zm-8-20.8c24.6-1 63.5 3.5 63.5 3.5.5.1.9-.1 1.1-.6l.4-1.2.7-2.1V42c-.1-.1-.2-.2-.3-.2-4.8-.6-40.3-5.3-66.1-4.6-24.3.6-44.7 5.4-50.1 6.9-.4.1-.7.5-.8.9l-.6 3.1c0 .2 0 .3.1.4.1.1.3.2.4.1 4.4-1 10.5-2 18.6-3l-5.4 30c-.1.5-.1 1.1.8 1.1h5.2c.3 0 .8-.1.9-.9l5.1-29.2s.3-1.6 2.1-2c2.2-.2 6-.5 8.3-.7l-5.6 31.7c-.2 1.1.4 1 .8 1h5.5c.5 0 1.1-.1 1.3-1.1l5.3-30.4s.3-1.6 2-2c2.4 0 4.1-.2 6.8-.3zm68 4.3l2.3.3c.6.1 1.1.2 1.3-.8l.7-2.6c.2-.8-.1-1-.8-1.1l-2.1-.3c-.4 0-1.1-.2-1.3.8l-.8 2.7c-.2.5 0 .8.7 1zm8.8 11.8c0-3.8-2.7-6-7.1-6-7.4 0-13.3 6.4-13.3 15.1 0 5.5 3 9.3 8.9 9.3 4.6 0 7.5-1.8 9.3-3.3l-2.4-4.1c-1.5 1.2-3.5 2.4-5.9 2.4-2.6 0-3.5-1.6-3.7-4.2 7.7-.9 14.2-3.6 14.2-9.2zm-13.8 5.2c.8-3.4 2.8-6.4 5.7-6.4 1.5 0 2.2.6 2.2 1.9 0 2.4-3.2 4-7.9 4.5zm32.1-11.2c-4 0-6.2 2.8-8.1 6h-.1l.6-2.4c.2-.7 0-1.5-.5-2.1-.5-.6-1.2-.9-1.9-.9h-3L241.1 87h3.5c1.5 0 2.9-1.1 3.1-2.6l1.4-7.5c.5.1 1.5.3 3.2.3 8 0 13.8-6.5 13.8-16.5.1-4.7-2.2-7.8-5.9-7.8zm-7.9 19.8c-1.3 0-2-.2-2.4-.3l.2-1.3c1.8-8.5 4.7-12.8 7.5-12.8 1.5 0 2.1 1.4 2.1 3.5.1 6.7-3.3 10.9-7.4 10.9zM357 52.9c-8.6 0-14.6 6.8-14.6 16.8 0 4.8 2.4 7.6 6 7.6 3.8 0 6-2.8 7.8-6.2h.1c-.2 1-.4 2.3-.6 3.5-.1.5.1 1.1.5 1.5.4.4.9.6 1.4.6h4c0-1.7.3-5.5 1.5-11.9l1.9-10.6c-1-.5-3.9-1.3-8-1.3zm1.1 6.2c-1.6 8.7-4.6 12.8-7.1 12.8-1.5 0-2.1-1.1-2.1-3.3 0-6.5 3.4-11 7.2-11 .9 0 1.8.1 2.2.3l-.2 1.2zm-23.8 8.4c-.7-1.4-1.3-2.2-2-2.9l10.2-11.1h-5.6c-1 0-1.9.4-2.5 1.1l-7.1 8.2H326l1.4-7.6c.1-.4 0-.9-.3-1.3-.3-.3-.7-.6-1.2-.6h-4.4l-4.1 23.2h4.5c1 0 1.9-.7 2-1.7l1.4-7.8h.7c1.4 0 2.2 1.5 3.7 4.6 1.7 3.6 2.5 5 5.5 5h2.4l.9-4.6h-.5c-1.4.1-2.3-1.4-3.7-4.5zm-25.1-12.6c-.9 5.9-4 9.8-6.9 9.8-1.5 0-2-1.1-1.6-3.7l.7-4.6c.1-.7-.1-1.5-.6-2.1-.5-.6-1.2-.9-2-.9h-3.1l-1.4 7.9c-.2 1-.3 2-.3 2.9 0 3.9 1.9 6 5.1 6 4.1 0 6.8-2.7 8.5-5.6h.1c-.7 3.5-1.6 8.8-2 12.1h6c.1-1.7.5-5.5 1.6-11.9l2-11.3h-6.1v1.4zm-27.7-2c-7.5 0-13.1 6.7-13.1 14.7 0 5.3 3.3 9.7 9.3 9.7 7.7 0 13-6.3 13-14.7 0-5.6-3.3-9.7-9.2-9.7zm-3.2 19.6c-2.4 0-3.6-2-3.6-5 0-4.3 2.4-9.8 6.3-9.8 2.4 0 3.5 1.8 3.5 5 0 4.2-2.1 9.8-6.2 9.8z"/></svg>